<mxfile host="app.diagrams.net" agent="Mozilla/5.0 (Windows NT 10.0; Win64; x64) AppleWebKit/537.36 (KHTML, like Gecko) Chrome/132.0.0.0 Safari/537.36" version="26.0.13">
  <diagram id="DIAGRAM111111111xx01" name="Page-1">
    <mxGraphModel dx="3000" dy="1514" grid="1" gridSize="10" guides="1" tooltips="1" connect="1" arrows="1" fold="1" page="1" pageScale="1" pageWidth="850" pageHeight="1100" math="0" shadow="0">
      <root>
        <mxCell id="0" />
        <mxCell id="1" parent="0" />
        <UserObject label="" plantUmlData="{&#xa;  &quot;data&quot;: &quot;@startuml\n\n&amp;apos; Définition des entités principales\n\ntitle Card Service - Diagramme UML\n\n&amp;apos; Classe d&amp;apos;audit générique\nabstract class DateAudit {\n  +Date createdAt\n  +Date updatedAt\n}\n\n&amp;apos; Entité représentant une carte virtuelle\nentity &amp;quot;Card&amp;quot; as c{\n  +Long id\n  +Long userId\n  +String cardNumber\n  +Double balance\n  +CardStatus status\n  +Plan plan\n  +Date expirationDate\n}\n\nenum CardStatus {\n  ACTIVE\n  INACTIVE\n  REVOKED\n}\n\n&amp;apos; Entité représentant un forfait\nentity Plan {\n  +Long id\n  +String name\n  +Double monthlyAmount\n  +Integer validityPeriodInMonths\n}\n\n&amp;apos; DTO utilisé pour la création de carte\nclass CardDTO {\n  +Long userId\n  +String cardNumber\n  +Double balance\n  +CardStatus status\n  +Long planId\n  +Date expirationDate\n}\n\n&amp;apos; DTO utilisé pour la gestion des forfaits\nclass PlanDTO {\n  +String name\n  +Double monthlyAmount\n  +Integer validityPeriodInMonths\n}\n\n&amp;apos; Mapper pour convertir un DTO en Entité\nclass CardMapper {\n  +Card toEntity(CardDTO dto)\n  +CardDTO toDto(Card card)\n}\n\nclass PlanMapper {\n  +Plan toEntity(PlanDTO dto)\n  +PlanDTO toDto(Plan card)\n}\n\n&amp;apos; Interface de service pour Card\ninterface ICardService {\n  +CardDTO createCard(CardDTO cardDTO)\n  +void revokeCard(Long cardId)\n  +List&amp;lt;CardDTO&amp;gt; getUserCards(Long userId)\n  +void updateBalance(Long cardId, Double amount)\n}\n\n&amp;apos; Interface de service pour Plan\ninterface IPlanService {\n  +PlanDTO createPlan(PlanDTO planDTO)\n  +PlanDTO updatePlan(Long planId, PlanDTO planDTO)\n  +void deletePlan(Long planId)\n  +List&amp;lt;PlanDTO&amp;gt; getAllPlans()\n}\n\n&amp;apos; Implémentation du service pour Card\nclass CardServiceImpl {\n  +CardDTO createCard(CardDTO cardDTO)\n  +void revokeCard(Long cardId)\n  +List&amp;lt;CardDTO&amp;gt; getUserCards(Long userId)\n  +void updateBalance(Long cardId, Double amount)\n}\n\n&amp;apos; Implémentation du service pour Plan\nclass PlanServiceImpl {\n  +PlanDTO createPlan(PlanDTO planDTO)\n  +PlanDTO updatePlan(Long planId, PlanDTO planDTO)\n  +void deletePlan(Long planId)\n  +List&amp;lt;PlanDTO&amp;gt; getAllPlans()\n}\n\n&amp;apos; Repository pour l&amp;apos;accès aux données pour Card\nclass CardRepository {\n  +Optional&amp;lt;c&amp;gt; findById(Long id)\n  +List&amp;lt;c&amp;gt; findByUserId(Long userId)\n  +void save(c card)\n}\n\n&amp;apos; Repository pour l&amp;apos;accès aux données pour Plan\nclass PlanRepository {\n  +Optional&amp;lt;Plan&amp;gt; findById(Long id)\n  +List&amp;lt;Plan&amp;gt; findAll()\n  +void save(Plan plan)\n  +void deleteById(Long id)\n}\n\n&amp;apos; Feign Client pour la communication avec d&amp;apos;autres services\nclass UserFeignClient {\n  +UserDTO getUserById(Long userId)\n}\n\n&amp;apos; Relations entre les classes\nCardServiceImpl ..|&amp;gt; ICardService\nCardServiceImpl ..&amp;gt; CardRepository : &amp;quot;Utilise&amp;quot;\nCardServiceImpl ..&amp;gt; UserFeignClient : &amp;quot;Récupère utilisateur via FeignClient&amp;quot;\nCardDTO ..&amp;gt; CardMapper : &amp;quot;Converti en&amp;quot;\nCardMapper ..&amp;gt; c : &amp;quot;Crée une instance de&amp;quot;\n\nPlanServiceImpl ..|&amp;gt; IPlanService\nPlanServiceImpl ..&amp;gt; PlanRepository : &amp;quot;Utilise&amp;quot;\nPlanDTO ..&amp;gt; PlanMapper : &amp;quot;Converti en&amp;quot;\nPlanMapper ..&amp;gt; Plan : &amp;quot;Crée une instance de&amp;quot;\n\nc &amp;quot;1&amp;quot; --&amp;gt; &amp;quot;1&amp;quot; Plan : &amp;quot;Attribué à un forfait&amp;quot;\n\n&amp;apos; Héritage de DateAudit\nc --|&amp;gt; DateAudit\nPlan --|&amp;gt; DateAudit\n\n&amp;apos; Lien entre enum CardStatus et Card\nCardStatus -- c : &amp;quot;Définit le statut de la carte&amp;quot;\n@enduml&quot;,&#xa;  &quot;format&quot;: &quot;svg&quot;&#xa;}" id="UZW2doCkWkY005Qo_P23-1">
          <mxCell style="shape=image;noLabel=1;verticalAlign=top;aspect=fixed;imageAspect=0;image=data:image/svg+xml,PHN2ZyB4bWxucz0iaHR0cDovL3d3dy53My5vcmcvMjAwMC9zdmciIHhtbG5zOnhsaW5rPSJodHRwOi8vd3d3LnczLm9yZy8xOTk5L3hsaW5rIiBjb250ZW50U3R5bGVUeXBlPSJ0ZXh0L2NzcyIgZGF0YS1kaWFncmFtLXR5cGU9IkNMQVNTIiBoZWlnaHQ9Ijk5MXB4IiBwcmVzZXJ2ZUFzcGVjdFJhdGlvPSJub25lIiBzdHlsZT0id2lkdGg6MjIwOXB4O2hlaWdodDo5OTFweDtiYWNrZ3JvdW5kOiNGRkZGRkY7IiB2ZXJzaW9uPSIxLjEiIHZpZXdCb3g9IjAgMCAyMjA5IDk5MSIgd2lkdGg9IjIyMDlweCIgem9vbUFuZFBhbj0ibWFnbmlmeSI+PHRpdGxlPkNhcmQgU2VydmljZSAtIERpYWdyYW1tZSBVTUw8L3RpdGxlPjxkZWZzLz48Zz48dGV4dCBmaWxsPSIjMDAwMDAwIiBmb250LWZhbWlseT0ic2Fucy1zZXJpZiIgZm9udC1zaXplPSIxNCIgZm9udC13ZWlnaHQ9ImJvbGQiIGxlbmd0aEFkanVzdD0ic3BhY2luZyIgdGV4dExlbmd0aD0iMjA4LjUxNjYiIHg9Ijk5My4zNjUyIiB5PSIyNC41MzMyIj5DYXJkIFNlcnZpY2UgLSBEaWFncmFtbWUgVU1MPC90ZXh0PjwhLS1jbGFzcyBEYXRlQXVkaXQtLT48ZyBpZD0iZWxlbV9EYXRlQXVkaXQiPjxyZWN0IGNvZGVMaW5lPSI3IiBmaWxsPSIjRjFGMUYxIiBoZWlnaHQ9IjgzLjIxODgiIGlkPSJEYXRlQXVkaXQiIHJ4PSIyLjUiIHJ5PSIyLjUiIHN0eWxlPSJzdHJva2U6IzE4MTgxODtzdHJva2Utd2lkdGg6MC41OyIgd2lkdGg9IjEyMy4yOTU5IiB4PSIyNzEuNSIgeT0iOTAxLjYwOTQiLz48ZWxsaXBzZSBjeD0iMjk5LjkxNjEiIGN5PSI5MTcuNjA5NCIgZmlsbD0iI0E5RENERiIgcng9IjExIiByeT0iMTEiIHN0eWxlPSJzdHJva2U6IzE4MTgxODtzdHJva2Utd2lkdGg6MTsiLz48cGF0aCBkPSJNMzAyLjEwMzYsOTE5LjM3NSBMMjk3Ljk2MjksOTE5LjM3NSBMMjk3LjU0MTEsOTIwLjQwNjMgTDI5Ny45NjI5LDkyMC40MDYzIFEyOTguNTcyMyw5MjAuNDA2MyAyOTguODM3OSw5MjAuNjQwNiBRMjk5LjEwMzYsOTIwLjg3NSAyOTkuMTAzNiw5MjEuMjY1NiBRMjk5LjEwMzYsOTIxLjY0MDYgMjk4LjgzNzksOTIxLjg3NSBRMjk4LjU3MjMsOTIyLjEwOTQgMjk3Ljk2MjksOTIyLjEwOTQgTDI5NS42NjYxLDkyMi4xMDk0IFEyOTUuMDU2Nyw5MjIuMTA5NCAyOTQuODA2Nyw5MjEuODc1IFEyOTQuNTQxMSw5MjEuNjQwNiAyOTQuNTQxMSw5MjEuMjUgUTI5NC41NDExLDkyMC44NzUgMjk0LjgyMjMsOTIwLjY0MDYgUTI5NS4wODc5LDkyMC4zOTA2IDI5NS43MTI5LDkyMC40MDYzIEwyOTguMzg0OCw5MTMuNzUgTDI5Ny4yNzU0LDkxMy43NSBRMjk2LjY2NjEsOTEzLjc1IDI5Ni40MDA0LDkxMy41MTU2IFEyOTYuMTM0OCw5MTMuMjgxMyAyOTYuMTM0OCw5MTIuODkwNiBRMjk2LjEzNDgsOTEyLjUxNTYgMjk2LjQwMDQsOTEyLjI4MTMgUTI5Ni42NjYxLDkxMi4wNDY5IDI5Ny4yNzU0LDkxMi4wNDY5IEwzMDAuOTQ3Myw5MTIuMDQ2OSBMMzA0LjMzNzksOTIwLjQwNjMgUTMwNC45MzE3LDkyMC40MDYzIDMwNS4xMTkyLDkyMC41NDY5IFEzMDUuNTA5OCw5MjAuODEyNSAzMDUuNTA5OCw5MjEuMjY1NiBRMzA1LjUwOTgsOTIxLjY0MDYgMzA1LjI0NDIsOTIxLjg3NSBRMzA0Ljk5NDIsOTIyLjEwOTQgMzA0LjM4NDgsOTIyLjEwOTQgTDMwMi4wODc5LDkyMi4xMDk0IFEzMDEuNDc4Niw5MjIuMTA5NCAzMDEuMjEyOSw5MjEuODc1IFEzMDAuOTQ3Myw5MjEuNjQwNiAzMDAuOTQ3Myw5MjEuMjUgUTMwMC45NDczLDkyMC44NzUgMzAxLjIxMjksOTIwLjY0MDYgUTMwMS40Nzg2LDkyMC40MDYzIDMwMi4wODc5LDkyMC40MDYzIEwzMDIuNTA5OCw5MjAuNDA2MyBMMzAyLjEwMzYsOTE5LjM3NSBaIE0zMDEuMzg0OCw5MTcuNjcxOSBMMzAwLjAyNTQsOTE0LjI5NjkgTDI5OC42NTA0LDkxNy42NzE5IEwzMDEuMzg0OCw5MTcuNjcxOSBaICIgZmlsbD0iIzAwMDAwMCIvPjx0ZXh0IGZpbGw9IiMwMDAwMDAiIGZvbnQtZmFtaWx5PSJzYW5zLXNlcmlmIiBmb250LXNpemU9IjE0IiBmb250LXN0eWxlPSJpdGFsaWMiIGxlbmd0aEFkanVzdD0ic3BhY2luZyIgdGV4dExlbmd0aD0iNjEuNDgyNCIgeD0iMzE2Ljg5NzQiIHk9IjkyMy4zMzc5Ij5EYXRlQXVkaXQ8L3RleHQ+PGxpbmUgc3R5bGU9InN0cm9rZTojMTgxODE4O3N0cm9rZS13aWR0aDowLjU7IiB4MT0iMjcyLjUiIHgyPSIzOTMuNzk1OSIgeTE9IjkzMy42MDk0IiB5Mj0iOTMzLjYwOTQiLz48ZWxsaXBzZSBjeD0iMjgyLjUiIGN5PSI5NDcuOTE0MSIgZmlsbD0idHJhbnNwYXJlbnQiIHJ4PSIzIiByeT0iMyIgc3R5bGU9InN0cm9rZTojMDM4MDQ4O3N0cm9rZS13aWR0aDoxOyIvPjx0ZXh0IGZpbGw9IiMwMDAwMDAiIGZvbnQtZmFtaWx5PSJzYW5zLXNlcmlmIiBmb250LXNpemU9IjE0IiBsZW5ndGhBZGp1c3Q9InNwYWNpbmciIHRleHRMZW5ndGg9IjkzLjM4NTciIHg9IjI5MS41IiB5PSI5NTIuMTQyNiI+RGF0ZSBjcmVhdGVkQXQ8L3RleHQ+PGVsbGlwc2UgY3g9IjI4Mi41IiBjeT0iOTY1LjUyMzQiIGZpbGw9InRyYW5zcGFyZW50IiByeD0iMyIgcnk9IjMiIHN0eWxlPSJzdHJva2U6IzAzODA0ODtzdHJva2Utd2lkdGg6MTsiLz48dGV4dCBmaWxsPSIjMDAwMDAwIiBmb250LWZhbWlseT0ic2Fucy1zZXJpZiIgZm9udC1zaXplPSIxNCIgbGVuZ3RoQWRqdXN0PSJzcGFjaW5nIiB0ZXh0TGVuZ3RoPSI5Ny4yOTU5IiB4PSIyOTEuNSIgeT0iOTY5Ljc1MiI+RGF0ZSB1cGRhdGVkQXQ8L3RleHQ+PGxpbmUgc3R5bGU9InN0cm9rZTojMTgxODE4O3N0cm9rZS13aWR0aDowLjU7IiB4MT0iMjcyLjUiIHgyPSIzOTMuNzk1OSIgeTE9Ijk3Ni44MjgxIiB5Mj0iOTc2LjgyODEiLz48L2c+PCEtLWNsYXNzIGMtLT48ZyBpZD0iZWxlbV9jIj48cmVjdCBjb2RlTGluZT0iMTMiIGZpbGw9IiNGMUYxRjEiIGhlaWdodD0iMTcxLjI2NTYiIGlkPSJjIiByeD0iMi41IiByeT0iMi41IiBzdHlsZT0ic3Ryb2tlOiMxODE4MTg7c3Ryb2tlLXdpZHRoOjAuNTsiIHdpZHRoPSIxNDkuNzM3MyIgeD0iMjkyIiB5PSI0NzMuNjA5NCIvPjxlbGxpcHNlIGN4PSIzNDcuNDQ2MyIgY3k9IjQ4OS42MDk0IiBmaWxsPSIjQUREMUIyIiByeD0iMTEiIHJ5PSIxMSIgc3R5bGU9InN0cm9rZTojMTgxODE4O3N0cm9rZS13aWR0aDoxOyIvPjxwYXRoIGQ9Ik0zNDYuMzA1Nyw0OTAuNDA2MyBMMzQ2LjMwNTcsNDkyLjkwNjMgTDM1MC42MzM4LDQ5Mi45MDYzIEwzNTAuNjMzOCw0OTEuOTg0NCBRMzUwLjYzMzgsNDkxLjM3NSAzNTAuODY4Miw0OTEuMTA5NCBRMzUxLjExODIsNDkwLjg0MzggMzUxLjQ5MzIsNDkwLjg0MzggUTM1MS44NjgyLDQ5MC44NDM4IDM1Mi4xMDI1LDQ5MS4xMDk0IFEzNTIuMzM2OSw0OTEuMzc1IDM1Mi4zMzY5LDQ5MS45ODQ0IEwzNTIuMzM2OSw0OTQuNjA5NCBMMzQ0LjMzNjksNDk0LjYwOTQgUTM0My43MTE5LDQ5NC42MDk0IDM0My40NDYzLDQ5NC4zNzUgUTM0My4xOTYzLDQ5NC4xNDA2IDM0My4xOTYzLDQ5My43NSBRMzQzLjE5NjMsNDkzLjM3NSAzNDMuNDYxOSw0OTMuMTQwNiBRMzQzLjcyNzUsNDkyLjkwNjMgMzQ0LjMzNjksNDkyLjkwNjMgTDM0NC42MDI1LDQ5Mi45MDYzIEwzNDQuNjAyNSw0ODYuMjUgTDM0NC4zMzY5LDQ4Ni4yNSBRMzQzLjcxMTksNDg2LjI1IDM0My40NDYzLDQ4Ni4wMTU2IFEzNDMuMTk2Myw0ODUuNzgxMyAzNDMuMTk2Myw0ODUuMzkwNiBRMzQzLjE5NjMsNDg1LjAxNTYgMzQzLjQ0NjMsNDg0Ljc4MTMgUTM0My43MTE5LDQ4NC41NDY5IDM0NC4zMzY5LDQ4NC41NDY5IEwzNTEuOTYxOSw0ODQuNTQ2OSBMMzUxLjk2MTksNDg3LjE0MDYgUTM1MS45NjE5LDQ4Ny43NSAzNTEuNzI3NSw0ODguMDE1NiBRMzUxLjUwODgsNDg4LjI2NTYgMzUxLjExODIsNDg4LjI2NTYgUTM1MC43NDMyLDQ4OC4yNjU2IDM1MC41MDg4LDQ4OC4wMTU2IFEzNTAuMjc0NCw0ODcuNzUgMzUwLjI3NDQsNDg3LjE0MDYgTDM1MC4yNzQ0LDQ4Ni4yNSBMMzQ2LjMwNTcsNDg2LjI1IEwzNDYuMzA1Nyw0ODguNzAzMSBMMzQ3Ljc5LDQ4OC43MDMxIFEzNDcuNzksNDg4LjA0NjkgMzQ3LjkxNSw0ODcuODU5NCBRMzQ4LjE4MDcsNDg3LjQ1MzEgMzQ4LjY0OTQsNDg3LjQ1MzEgUTM0OS4wMjQ0LDQ4Ny40NTMxIDM0OS4yNTg4LDQ4Ny43MTg4IFEzNDkuNDkzMiw0ODcuOTY4OCAzNDkuNDkzMiw0ODguNTc4MSBMMzQ5LjQ5MzIsNDkwLjU0NjkgUTM0OS40OTMyLDQ5MS4wOTM4IDM0OS4zNjgyLDQ5MS4yODEzIFEzNDkuMTAyNSw0OTEuNjcxOSAzNDguNjQ5NCw0OTEuNjcxOSBRMzQ4LjE4MDcsNDkxLjY3MTkgMzQ3LjkxNSw0OTEuMjY1NiBRMzQ3Ljc5LDQ5MS4wNzgxIDM0Ny43OSw0OTAuNDA2MyBMMzQ2LjMwNTcsNDkwLjQwNjMgWiAiIGZpbGw9IiMwMDAwMDAiLz48dGV4dCBmaWxsPSIjMDAwMDAwIiBmb250LWZhbWlseT0ic2Fucy1zZXJpZiIgZm9udC1zaXplPSIxNCIgbGVuZ3RoQWRqdXN0PSJzcGFjaW5nIiB0ZXh0TGVuZ3RoPSIzMC4zNDQ3IiB4PSIzNjcuOTQ2MyIgeT0iNDk1LjMzNzkiPkNhcmQ8L3RleHQ+PGxpbmUgc3R5bGU9InN0cm9rZTojMTgxODE4O3N0cm9rZS13aWR0aDowLjU7IiB4MT0iMjkzIiB4Mj0iNDQwLjczNzMiIHkxPSI1MDUuNjA5NCIgeTI9IjUwNS42MDk0Ii8+PGVsbGlwc2UgY3g9IjMwMyIgY3k9IjUxOS45MTQxIiBmaWxsPSJ0cmFuc3BhcmVudCIgcng9IjMiIHJ5PSIzIiBzdHlsZT0ic3Ryb2tlOiMwMzgwNDg7c3Ryb2tlLXdpZHRoOjE7Ii8+PHRleHQgZmlsbD0iIzAwMDAwMCIgZm9udC1mYW1pbHk9InNhbnMtc2VyaWYiIGZvbnQtc2l6ZT0iMTQiIGxlbmd0aEFkanVzdD0ic3BhY2luZyIgdGV4dExlbmd0aD0iNDUuOTMwNyIgeD0iMzEyIiB5PSI1MjQuMTQyNiI+TG9uZyBpZDwvdGV4dD48ZWxsaXBzZSBjeD0iMzAzIiBjeT0iNTM3LjUyMzQiIGZpbGw9InRyYW5zcGFyZW50IiByeD0iMyIgcnk9IjMiIHN0eWxlPSJzdHJva2U6IzAzODA0ODtzdHJva2Utd2lkdGg6MTsiLz48dGV4dCBmaWxsPSIjMDAwMDAwIiBmb250LWZhbWlseT0ic2Fucy1zZXJpZiIgZm9udC1zaXplPSIxNCIgbGVuZ3RoQWRqdXN0PSJzcGFjaW5nIiB0ZXh0TGVuZ3RoPSI3My45NDQzIiB4PSIzMTIiIHk9IjU0MS43NTIiPkxvbmcgdXNlcklkPC90ZXh0PjxlbGxpcHNlIGN4PSIzMDMiIGN5PSI1NTUuMTMyOCIgZmlsbD0idHJhbnNwYXJlbnQiIHJ4PSIzIiByeT0iMyIgc3R5bGU9InN0cm9rZTojMDM4MDQ4O3N0cm9rZS13aWR0aDoxOyIvPjx0ZXh0IGZpbGw9IiMwMDAwMDAiIGZvbnQtZmFtaWx5PSJzYW5zLXNlcmlmIiBmb250LXNpemU9IjE0IiBsZW5ndGhBZGp1c3Q9InNwYWNpbmciIHRleHRMZW5ndGg9IjExNy40ODkzIiB4PSIzMTIiIHk9IjU1OS4zNjEzIj5TdHJpbmcgY2FyZE51bWJlcjwvdGV4dD48ZWxsaXBzZSBjeD0iMzAzIiBjeT0iNTcyLjc0MjIiIGZpbGw9InRyYW5zcGFyZW50IiByeD0iMyIgcnk9IjMiIHN0eWxlPSJzdHJva2U6IzAzODA0ODtzdHJva2Utd2lkdGg6MTsiLz48dGV4dCBmaWxsPSIjMDAwMDAwIiBmb250LWZhbWlseT0ic2Fucy1zZXJpZiIgZm9udC1zaXplPSIxNCIgbGVuZ3RoQWRqdXN0PSJzcGFjaW5nIiB0ZXh0TGVuZ3RoPSI5Ny4yOTU5IiB4PSIzMTIiIHk9IjU3Ni45NzA3Ij5Eb3VibGUgYmFsYW5jZTwvdGV4dD48ZWxsaXBzZSBjeD0iMzAzIiBjeT0iNTkwLjM1MTYiIGZpbGw9InRyYW5zcGFyZW50IiByeD0iMyIgcnk9IjMiIHN0eWxlPSJzdHJva2U6IzAzODA0ODtzdHJva2Utd2lkdGg6MTsiLz48dGV4dCBmaWxsPSIjMDAwMDAwIiBmb250LWZhbWlseT0ic2Fucy1zZXJpZiIgZm9udC1zaXplPSIxNCIgbGVuZ3RoQWRqdXN0PSJzcGFjaW5nIiB0ZXh0TGVuZ3RoPSIxMTEuMjc1NCIgeD0iMzEyIiB5PSI1OTQuNTgwMSI+Q2FyZFN0YXR1cyBzdGF0dXM8L3RleHQ+PGVsbGlwc2UgY3g9IjMwMyIgY3k9IjYwNy45NjA5IiBmaWxsPSJ0cmFuc3BhcmVudCIgcng9IjMiIHJ5PSIzIiBzdHlsZT0ic3Ryb2tlOiMwMzgwNDg7c3Ryb2tlLXdpZHRoOjE7Ii8+PHRleHQgZmlsbD0iIzAwMDAwMCIgZm9udC1mYW1pbHk9InNhbnMtc2VyaWYiIGZvbnQtc2l6ZT0iMTQiIGxlbmd0aEFkanVzdD0ic3BhY2luZyIgdGV4dExlbmd0aD0iNTguMzc4OSIgeD0iMzEyIiB5PSI2MTIuMTg5NSI+UGxhbiBwbGFuPC90ZXh0PjxlbGxpcHNlIGN4PSIzMDMiIGN5PSI2MjUuNTcwMyIgZmlsbD0idHJhbnNwYXJlbnQiIHJ4PSIzIiByeT0iMyIgc3R5bGU9InN0cm9rZTojMDM4MDQ4O3N0cm9rZS13aWR0aDoxOyIvPjx0ZXh0IGZpbGw9IiMwMDAwMDAiIGZvbnQtZmFtaWx5PSJzYW5zLXNlcmlmIiBmb250LXNpemU9IjE0IiBsZW5ndGhBZGp1c3Q9InNwYWNpbmciIHRleHRMZW5ndGg9IjEyMy43MzczIiB4PSIzMTIiIHk9IjYyOS43OTg4Ij5EYXRlIGV4cGlyYXRpb25EYXRlPC90ZXh0PjxsaW5lIHN0eWxlPSJzdHJva2U6IzE4MTgxODtzdHJva2Utd2lkdGg6MC41OyIgeDE9IjI5MyIgeDI9IjQ0MC43MzczIiB5MT0iNjM2Ljg3NSIgeTI9IjYzNi44NzUiLz48L2c+PCEtLWNsYXNzIENhcmRTdGF0dXMtLT48ZyBpZD0iZWxlbV9DYXJkU3RhdHVzIj48cmVjdCBjb2RlTGluZT0iMjMiIGZpbGw9IiNGMUYxRjEiIGhlaWdodD0iMTAwLjgyODEiIGlkPSJDYXJkU3RhdHVzIiByeD0iMi41IiByeT0iMi41IiBzdHlsZT0ic3Ryb2tlOiMxODE4MTg7c3Ryb2tlLXdpZHRoOjAuNTsiIHdpZHRoPSIxMDIuMDM0MiIgeD0iMjYzIiB5PSIyODYuMTA5NCIvPjxlbGxpcHNlIGN4PSIyNzgiIGN5PSIzMDIuMTA5NCIgZmlsbD0iI0VCOTM3RiIgcng9IjExIiByeT0iMTEiIHN0eWxlPSJzdHJva2U6IzE4MTgxODtzdHJva2Utd2lkdGg6MTsiLz48cGF0aCBkPSJNMjc2Ljg1OTQsMzAyLjkwNjMgTDI3Ni44NTk0LDMwNS40MDYzIEwyODEuMTg3NSwzMDUuNDA2MyBMMjgxLjE4NzUsMzA0LjQ4NDQgUTI4MS4xODc1LDMwMy44NzUgMjgxLjQyMTksMzAzLjYwOTQgUTI4MS42NzE5LDMwMy4zNDM4IDI4Mi4wNDY5LDMwMy4zNDM4IFEyODIuNDIxOSwzMDMuMzQzOCAyODIuNjU2MywzMDMuNjA5NCBRMjgyLjg5MDYsMzAzLjg3NSAyODIuODkwNiwzMDQuNDg0NCBMMjgyLjg5MDYsMzA3LjEwOTQgTDI3NC44OTA2LDMwNy4xMDk0IFEyNzQuMjY1NiwzMDcuMTA5NCAyNzQsMzA2Ljg3NSBRMjczLjc1LDMwNi42NDA2IDI3My43NSwzMDYuMjUgUTI3My43NSwzMDUuODc1IDI3NC4wMTU2LDMwNS42NDA2IFEyNzQuMjgxMywzMDUuNDA2MyAyNzQuODkwNiwzMDUuNDA2MyBMMjc1LjE1NjMsMzA1LjQwNjMgTDI3NS4xNTYzLDI5OC43NSBMMjc0Ljg5MDYsMjk4Ljc1IFEyNzQuMjY1NiwyOTguNzUgMjc0LDI5OC41MTU2IFEyNzMuNzUsMjk4LjI4MTMgMjczLjc1LDI5Ny44OTA2IFEyNzMuNzUsMjk3LjUxNTYgMjc0LDI5Ny4yODEzIFEyNzQuMjY1NiwyOTcuMDQ2OSAyNzQuODkwNiwyOTcuMDQ2OSBMMjgyLjUxNTYsMjk3LjA0NjkgTDI4Mi41MTU2LDI5OS42NDA2IFEyODIuNTE1NiwzMDAuMjUgMjgyLjI4MTMsMzAwLjUxNTYgUTI4Mi4wNjI1LDMwMC43NjU2IDI4MS42NzE5LDMwMC43NjU2IFEyODEuMjk2OSwzMDAuNzY1NiAyODEuMDYyNSwzMDAuNTE1NiBRMjgwLjgyODEsMzAwLjI1IDI4MC44MjgxLDI5OS42NDA2IEwyODAuODI4MSwyOTguNzUgTDI3Ni44NTk0LDI5OC43NSBMMjc2Ljg1OTQsMzAxLjIwMzEgTDI3OC4zNDM4LDMwMS4yMDMxIFEyNzguMzQzOCwzMDAuNTQ2OSAyNzguNDY4OCwzMDAuMzU5NCBRMjc4LjczNDQsMjk5Ljk1MzEgMjc5LjIwMzEsMjk5Ljk1MzEgUTI3OS41NzgxLDI5OS45NTMxIDI3OS44MTI1LDMwMC4yMTg4IFEyODAuMDQ2OSwzMDAuNDY4OCAyODAuMDQ2OSwzMDEuMDc4MSBMMjgwLjA0NjksMzAzLjA0NjkgUTI4MC4wNDY5LDMwMy41OTM4IDI3OS45MjE5LDMwMy43ODEzIFEyNzkuNjU2MywzMDQuMTcxOSAyNzkuMjAzMSwzMDQuMTcxOSBRMjc4LjczNDQsMzA0LjE3MTkgMjc4LjQ2ODgsMzAzLjc2NTYgUTI3OC4zNDM4LDMwMy41NzgxIDI3OC4zNDM4LDMwMi45MDYzIEwyNzYuODU5NCwzMDIuOTA2MyBaICIgZmlsbD0iIzAwMDAwMCIvPjx0ZXh0IGZpbGw9IiMwMDAwMDAiIGZvbnQtZmFtaWx5PSJzYW5zLXNlcmlmIiBmb250LXNpemU9IjE0IiBsZW5ndGhBZGp1c3Q9InNwYWNpbmciIHRleHRMZW5ndGg9IjcwLjAzNDIiIHg9IjI5MiIgeT0iMzA3LjgzNzkiPkNhcmRTdGF0dXM8L3RleHQ+PGxpbmUgc3R5bGU9InN0cm9rZTojMTgxODE4O3N0cm9rZS13aWR0aDowLjU7IiB4MT0iMjY0IiB4Mj0iMzY0LjAzNDIiIHkxPSIzMTguMTA5NCIgeTI9IjMxOC4xMDk0Ii8+PHRleHQgZmlsbD0iIzAwMDAwMCIgZm9udC1mYW1pbHk9InNhbnMtc2VyaWYiIGZvbnQtc2l6ZT0iMTQiIGxlbmd0aEFkanVzdD0ic3BhY2luZyIgdGV4dExlbmd0aD0iNTAuNTY1NCIgeD0iMjY5IiB5PSIzMzYuNjQyNiI+QUNUSVZFPC90ZXh0Pjx0ZXh0IGZpbGw9IiMwMDAwMDAiIGZvbnQtZmFtaWx5PSJzYW5zLXNlcmlmIiBmb250LXNpemU9IjE0IiBsZW5ndGhBZGp1c3Q9InNwYWNpbmciIHRleHRMZW5ndGg9IjY0LjU2NTQiIHg9IjI2OSIgeT0iMzU0LjI1MiI+SU5BQ1RJVkU8L3RleHQ+PHRleHQgZmlsbD0iIzAwMDAwMCIgZm9udC1mYW1pbHk9InNhbnMtc2VyaWYiIGZvbnQtc2l6ZT0iMTQiIGxlbmd0aEFkanVzdD0ic3BhY2luZyIgdGV4dExlbmd0aD0iNjguNDYxOSIgeD0iMjY5IiB5PSIzNzEuODYxMyI+UkVWT0tFRDwvdGV4dD48bGluZSBzdHlsZT0ic3Ryb2tlOiMxODE4MTg7c3Ryb2tlLXdpZHRoOjAuNTsiIHgxPSIyNjQiIHgyPSIzNjQuMDM0MiIgeTE9IjM3OC45Mzc1IiB5Mj0iMzc4LjkzNzUiLz48L2c+PCEtLWNsYXNzIFBsYW4tLT48ZyBpZD0iZWxlbV9QbGFuIj48cmVjdCBjb2RlTGluZT0iMzAiIGZpbGw9IiNGMUYxRjEiIGhlaWdodD0iMTE4LjQzNzUiIGlkPSJQbGFuIiByeD0iMi41IiByeT0iMi41IiBzdHlsZT0ic3Ryb2tlOiMxODE4MTg7c3Ryb2tlLXdpZHRoOjAuNTsiIHdpZHRoPSIyMTQuMzIzMiIgeD0iMTQ2IiB5PSI3MjIuNjA5NCIvPjxlbGxpcHNlIGN4PSIyMzQuOTAxNCIgY3k9IjczOC42MDk0IiBmaWxsPSIjQUREMUIyIiByeD0iMTEiIHJ5PSIxMSIgc3R5bGU9InN0cm9rZTojMTgxODE4O3N0cm9rZS13aWR0aDoxOyIvPjxwYXRoIGQ9Ik0yMzMuNzYwNyw3MzkuNDA2MyBMMjMzLjc2MDcsNzQxLjkwNjMgTDIzOC4wODg5LDc0MS45MDYzIEwyMzguMDg4OSw3NDAuOTg0NCBRMjM4LjA4ODksNzQwLjM3NSAyMzguMzIzMiw3NDAuMTA5NCBRMjM4LjU3MzIsNzM5Ljg0MzggMjM4Ljk0ODIsNzM5Ljg0MzggUTIzOS4zMjMyLDczOS44NDM4IDIzOS41NTc2LDc0MC4xMDk0IFEyMzkuNzkyLDc0MC4zNzUgMjM5Ljc5Miw3NDAuOTg0NCBMMjM5Ljc5Miw3NDMuNjA5NCBMMjMxLjc5Miw3NDMuNjA5NCBRMjMxLjE2Nyw3NDMuNjA5NCAyMzAuOTAxNCw3NDMuMzc1IFEyMzAuNjUxNCw3NDMuMTQwNiAyMzAuNjUxNCw3NDIuNzUgUTIzMC42NTE0LDc0Mi4zNzUgMjMwLjkxNyw3NDIuMTQwNiBRMjMxLjE4MjYsNzQxLjkwNjMgMjMxLjc5Miw3NDEuOTA2MyBMMjMyLjA1NzYsNzQxLjkwNjMgTDIzMi4wNTc2LDczNS4yNSBMMjMxLjc5Miw3MzUuMjUgUTIzMS4xNjcsNzM1LjI1IDIzMC45MDE0LDczNS4wMTU2IFEyMzAuNjUxNCw3MzQuNzgxMyAyMzAuNjUxNCw3MzQuMzkwNiBRMjMwLjY1MTQsNzM0LjAxNTYgMjMwLjkwMTQsNzMzLjc4MTMgUTIzMS4xNjcsNzMzLjU0NjkgMjMxLjc5Miw3MzMuNTQ2OSBMMjM5LjQxNyw3MzMuNTQ2OSBMMjM5LjQxNyw3MzYuMTQwNiBRMjM5LjQxNyw3MzYuNzUgMjM5LjE4MjYsNzM3LjAxNTYgUTIzOC45NjM5LDczNy4yNjU2IDIzOC41NzMyLDczNy4yNjU2IFEyMzguMTk4Miw3MzcuMjY1NiAyMzcuOTYzOSw3MzcuMDE1NiBRMjM3LjcyOTUsNzM2Ljc1IDIzNy43Mjk1LDczNi4xNDA2IEwyMzcuNzI5NSw3MzUuMjUgTDIzMy43NjA3LDczNS4yNSBMMjMzLjc2MDcsNzM3LjcwMzEgTDIzNS4yNDUxLDczNy43MDMxIFEyMzUuMjQ1MSw3MzcuMDQ2OSAyMzUuMzcwMSw3MzYuODU5NCBRMjM1LjYzNTcsNzM2LjQ1MzEgMjM2LjEwNDUsNzM2LjQ1MzEgUTIzNi40Nzk1LDczNi40NTMxIDIzNi43MTM5LDczNi43MTg4IFEyMzYuOTQ4Miw3MzYuOTY4OCAyMzYuOTQ4Miw3MzcuNTc4MSBMMjM2Ljk0ODIsNzM5LjU0NjkgUTIzNi45NDgyLDc0MC4wOTM4IDIzNi44MjMyLDc0MC4yODEzIFEyMzYuNTU3Niw3NDAuNjcxOSAyMzYuMTA0NSw3NDAuNjcxOSBRMjM1LjYzNTcsNzQwLjY3MTkgMjM1LjM3MDEsNzQwLjI2NTYgUTIzNS4yNDUxLDc0MC4wNzgxIDIzNS4yNDUxLDczOS40MDYzIEwyMzMuNzYwNyw3MzkuNDA2MyBaICIgZmlsbD0iIzAwMDAwMCIvPjx0ZXh0IGZpbGw9IiMwMDAwMDAiIGZvbnQtZmFtaWx5PSJzYW5zLXNlcmlmIiBmb250LXNpemU9IjE0IiBsZW5ndGhBZGp1c3Q9InNwYWNpbmciIHRleHRMZW5ndGg9IjI4LjAyMDUiIHg9IjI1NS40MDE0IiB5PSI3NDQuMzM3OSI+UGxhbjwvdGV4dD48bGluZSBzdHlsZT0ic3Ryb2tlOiMxODE4MTg7c3Ryb2tlLXdpZHRoOjAuNTsiIHgxPSIxNDciIHgyPSIzNTkuMzIzMiIgeTE9Ijc1NC42MDk0IiB5Mj0iNzU0LjYwOTQiLz48ZWxsaXBzZSBjeD0iMTU3IiBjeT0iNzY4LjkxNDEiIGZpbGw9InRyYW5zcGFyZW50IiByeD0iMyIgcnk9IjMiIHN0eWxlPSJzdHJva2U6IzAzODA0ODtzdHJva2Utd2lkdGg6MTsiLz48dGV4dCBmaWxsPSIjMDAwMDAwIiBmb250LWZhbWlseT0ic2Fucy1zZXJpZiIgZm9udC1zaXplPSIxNCIgbGVuZ3RoQWRqdXN0PSJzcGFjaW5nIiB0ZXh0TGVuZ3RoPSI0NS45MzA3IiB4PSIxNjYiIHk9Ijc3My4xNDI2Ij5Mb25nIGlkPC90ZXh0PjxlbGxpcHNlIGN4PSIxNTciIGN5PSI3ODYuNTIzNCIgZmlsbD0idHJhbnNwYXJlbnQiIHJ4PSIzIiByeT0iMyIgc3R5bGU9InN0cm9rZTojMDM4MDQ4O3N0cm9rZS13aWR0aDoxOyIvPjx0ZXh0IGZpbGw9IiMwMDAwMDAiIGZvbnQtZmFtaWx5PSJzYW5zLXNlcmlmIiBmb250LXNpemU9IjE0IiBsZW5ndGhBZGp1c3Q9InNwYWNpbmciIHRleHRMZW5ndGg9Ijc1LjQ4MjQiIHg9IjE2NiIgeT0iNzkwLjc1MiI+U3RyaW5nIG5hbWU8L3RleHQ+PGVsbGlwc2UgY3g9IjE1NyIgY3k9IjgwNC4xMzI4IiBmaWxsPSJ0cmFuc3BhcmVudCIgcng9IjMiIHJ5PSIzIiBzdHlsZT0ic3Ryb2tlOiMwMzgwNDg7c3Ryb2tlLXdpZHRoOjE7Ii8+PHRleHQgZmlsbD0iIzAwMDAwMCIgZm9udC1mYW1pbHk9InNhbnMtc2VyaWYiIGZvbnQtc2l6ZT0iMTQiIGxlbmd0aEFkanVzdD0ic3BhY2luZyIgdGV4dExlbmd0aD0iMTQ1LjUyMzQiIHg9IjE2NiIgeT0iODA4LjM2MTMiPkRvdWJsZSBtb250aGx5QW1vdW50PC90ZXh0PjxlbGxpcHNlIGN4PSIxNTciIGN5PSI4MjEuNzQyMiIgZmlsbD0idHJhbnNwYXJlbnQiIHJ4PSIzIiByeT0iMyIgc3R5bGU9InN0cm9rZTojMDM4MDQ4O3N0cm9rZS13aWR0aDoxOyIvPjx0ZXh0IGZpbGw9IiMwMDAwMDAiIGZvbnQtZmFtaWx5PSJzYW5zLXNlcmlmIiBmb250LXNpemU9IjE0IiBsZW5ndGhBZGp1c3Q9InNwYWNpbmciIHRleHRMZW5ndGg9IjE4OC4zMjMyIiB4PSIxNjYiIHk9IjgyNS45NzA3Ij5JbnRlZ2VyIHZhbGlkaXR5UGVyaW9kSW5Nb250aHM8L3RleHQ+PGxpbmUgc3R5bGU9InN0cm9rZTojMTgxODE4O3N0cm9rZS13aWR0aDowLjU7IiB4MT0iMTQ3IiB4Mj0iMzU5LjMyMzIiIHkxPSI4MzMuMDQ2OSIgeTI9IjgzMy4wNDY5Ii8+PC9nPjwhLS1jbGFzcyBDYXJkRFRPLS0+PGcgaWQ9ImVsZW1fQ2FyZERUTyI+PHJlY3QgY29kZUxpbmU9IjM4IiBmaWxsPSIjRjFGMUYxIiBoZWlnaHQ9IjE1My42NTYzIiBpZD0iQ2FyZERUTyIgcng9IjIuNSIgcnk9IjIuNSIgc3R5bGU9InN0cm9rZTojMTgxODE4O3N0cm9rZS13aWR0aDowLjU7IiB3aWR0aD0iMTQ5LjczNzMiIHg9IjQzMSIgeT0iNDUuNjA5NCIvPjxlbGxpcHNlIGN4PSI0NzIuMDI4NCIgY3k9IjYxLjYwOTQiIGZpbGw9IiNBREQxQjIiIHJ4PSIxMSIgcnk9IjExIiBzdHlsZT0ic3Ryb2tlOiMxODE4MTg7c3Ryb2tlLXdpZHRoOjE7Ii8+PHBhdGggZD0iTTQ3NC43OTQsNTcuNDg0NCBRNDc0Ljk1MDIsNTcuMjY1NiA0NzUuMTM3Nyw1Ny4xNTYzIFE0NzUuMzI1Miw1Ny4wNDY5IDQ3NS41NDQsNTcuMDQ2OSBRNDc1LjkxOSw1Ny4wNDY5IDQ3Ni4xNTM0LDU3LjMxMjUgUTQ3Ni4zODc3LDU3LjU2MjUgNDc2LjM4NzcsNTguMTcxOSBMNDc2LjM4NzcsNTkuNjI1IFE0NzYuMzg3Nyw2MC4yMzQ0IDQ3Ni4xNTM0LDYwLjUgUTQ3NS45MTksNjAuNzY1NiA0NzUuNTQ0LDYwLjc2NTYgUTQ3NS4yMDAyLDYwLjc2NTYgNDc0Ljk5NzEsNjAuNTYyNSBRNDc0Ljc5NCw2MC4zNzUgNDc0LjY4NDYsNTkuODU5NCBRNDc0LjYzNzcsNTkuNSA0NzQuNDUwMiw1OS4zMTI1IFE0NzQuMTIyMSw1OC45Mzc1IDQ3My41MTI3LDU4LjcxODggUTQ3Mi45MDM0LDU4LjUgNDcyLjI3ODQsNTguNSBRNDcxLjUxMjcsNTguNSA0NzAuODcyMSw1OC44MjgxIFE0NzAuMjQ3MSw1OS4xNTYzIDQ2OS43NDcxLDU5LjkwNjMgUTQ2OS4yNjI3LDYwLjY1NjMgNDY5LjI2MjcsNjEuNjg3NSBMNDY5LjI2MjcsNjIuNzgxMyBRNDY5LjI2MjcsNjQuMDE1NiA0NzAuMTUzNCw2NC44NDM4IFE0NzEuMDQ0LDY1LjY1NjMgNDcyLjYzNzcsNjUuNjU2MyBRNDczLjU3NTIsNjUuNjU2MyA0NzQuMjMxNSw2NS40MDYzIFE0NzQuNjIyMSw2NS4yNSA0NzUuMDQ0LDY0LjgxMjUgUTQ3NS4zMDk2LDY0LjU0NjkgNDc1LjQ1MDIsNjQuNDY4OCBRNDc1LjYwNjUsNjQuMzkwNiA0NzUuODA5Niw2NC4zOTA2IFE0NzYuMTM3Nyw2NC4zOTA2IDQ3Ni4zODc3LDY0LjY1NjMgUTQ3Ni42NTM0LDY0LjkwNjMgNDc2LjY1MzQsNjUuMjUgUTQ3Ni42NTM0LDY1LjU5MzggNDc2LjMwOTYsNjYgUTQ3NS44MDk2LDY2LjU3ODEgNDc1LjAxMjcsNjYuOTA2MyBRNDczLjkzNDYsNjcuMzU5NCA0NzIuNjM3Nyw2Ny4zNTk0IFE0NzEuMTIyMSw2Ny4zNTk0IDQ2OS45MTksNjYuNzM0NCBRNDY4LjkzNDYsNjYuMjM0NCA0NjguMjQ3MSw2NS4xNzE5IFE0NjcuNTU5Niw2NC4wOTM4IDQ2Ny41NTk2LDYyLjgxMjUgTDQ2Ny41NTk2LDYxLjY1NjMgUTQ2Ny41NTk2LDYwLjMyODEgNDY4LjE2OSw1OS4xODc1IFE0NjguNzk0LDU4LjAzMTMgNDY5Ljg4NzcsNTcuNDIxOSBRNDcwLjk4MTUsNTYuNzk2OSA0NzIuMjE1OSw1Ni43OTY5IFE0NzIuOTUwMiw1Ni43OTY5IDQ3My41OTA5LDU2Ljk2ODggUTQ3NC4yNDcxLDU3LjEyNSA0NzQuNzk0LDU3LjQ4NDQgWiAiIGZpbGw9IiMwMDAwMDAiLz48dGV4dCBmaWxsPSIjMDAwMDAwIiBmb250LWZhbWlseT0ic2Fucy1zZXJpZiIgZm9udC1zaXplPSIxNCIgbGVuZ3RoQWRqdXN0PSJzcGFjaW5nIiB0ZXh0TGVuZ3RoPSI1OS44OTY1IiB4PSI0OTEuODEyNSIgeT0iNjcuMzM3OSI+Q2FyZERUTzwvdGV4dD48bGluZSBzdHlsZT0ic3Ryb2tlOiMxODE4MTg7c3Ryb2tlLXdpZHRoOjAuNTsiIHgxPSI0MzIiIHgyPSI1NzkuNzM3MyIgeTE9Ijc3LjYwOTQiIHkyPSI3Ny42MDk0Ii8+PGVsbGlwc2UgY3g9IjQ0MiIgY3k9IjkxLjkxNDEiIGZpbGw9InRyYW5zcGFyZW50IiByeD0iMyIgcnk9IjMiIHN0eWxlPSJzdHJva2U6IzAzODA0ODtzdHJva2Utd2lkdGg6MTsiLz48dGV4dCBmaWxsPSIjMDAwMDAwIiBmb250LWZhbWlseT0ic2Fucy1zZXJpZiIgZm9udC1zaXplPSIxNCIgbGVuZ3RoQWRqdXN0PSJzcGFjaW5nIiB0ZXh0TGVuZ3RoPSI3My45NDQzIiB4PSI0NTEiIHk9Ijk2LjE0MjYiPkxvbmcgdXNlcklkPC90ZXh0PjxlbGxpcHNlIGN4PSI0NDIiIGN5PSIxMDkuNTIzNCIgZmlsbD0idHJhbnNwYXJlbnQiIHJ4PSIzIiByeT0iMyIgc3R5bGU9InN0cm9rZTojMDM4MDQ4O3N0cm9rZS13aWR0aDoxOyIvPjx0ZXh0IGZpbGw9IiMwMDAwMDAiIGZvbnQtZmFtaWx5PSJzYW5zLXNlcmlmIiBmb250LXNpemU9IjE0IiBsZW5ndGhBZGp1c3Q9InNwYWNpbmciIHRleHRMZW5ndGg9IjExNy40ODkzIiB4PSI0NTEiIHk9IjExMy43NTIiPlN0cmluZyBjYXJkTnVtYmVyPC90ZXh0PjxlbGxpcHNlIGN4PSI0NDIiIGN5PSIxMjcuMTMyOCIgZmlsbD0idHJhbnNwYXJlbnQiIHJ4PSIzIiByeT0iMyIgc3R5bGU9InN0cm9rZTojMDM4MDQ4O3N0cm9rZS13aWR0aDoxOyIvPjx0ZXh0IGZpbGw9IiMwMDAwMDAiIGZvbnQtZmFtaWx5PSJzYW5zLXNlcmlmIiBmb250LXNpemU9IjE0IiBsZW5ndGhBZGp1c3Q9InNwYWNpbmciIHRleHRMZW5ndGg9Ijk3LjI5NTkiIHg9IjQ1MSIgeT0iMTMxLjM2MTMiPkRvdWJsZSBiYWxhbmNlPC90ZXh0PjxlbGxpcHNlIGN4PSI0NDIiIGN5PSIxNDQuNzQyMiIgZmlsbD0idHJhbnNwYXJlbnQiIHJ4PSIzIiByeT0iMyIgc3R5bGU9InN0cm9rZTojMDM4MDQ4O3N0cm9rZS13aWR0aDoxOyIvPjx0ZXh0IGZpbGw9IiMwMDAwMDAiIGZvbnQtZmFtaWx5PSJzYW5zLXNlcmlmIiBmb250LXNpemU9IjE0IiBsZW5ndGhBZGp1c3Q9InNwYWNpbmciIHRleHRMZW5ndGg9IjExMS4yNzU0IiB4PSI0NTEiIHk9IjE0OC45NzA3Ij5DYXJkU3RhdHVzIHN0YXR1czwvdGV4dD48ZWxsaXBzZSBjeD0iNDQyIiBjeT0iMTYyLjM1MTYiIGZpbGw9InRyYW5zcGFyZW50IiByeD0iMyIgcnk9IjMiIHN0eWxlPSJzdHJva2U6IzAzODA0ODtzdHJva2Utd2lkdGg6MTsiLz48dGV4dCBmaWxsPSIjMDAwMDAwIiBmb250LWZhbWlseT0ic2Fucy1zZXJpZiIgZm9udC1zaXplPSIxNCIgbGVuZ3RoQWRqdXN0PSJzcGFjaW5nIiB0ZXh0TGVuZ3RoPSI3My4xNzg3IiB4PSI0NTEiIHk9IjE2Ni41ODAxIj5Mb25nIHBsYW5JZDwvdGV4dD48ZWxsaXBzZSBjeD0iNDQyIiBjeT0iMTc5Ljk2MDkiIGZpbGw9InRyYW5zcGFyZW50IiByeD0iMyIgcnk9IjMiIHN0eWxlPSJzdHJva2U6IzAzODA0ODtzdHJva2Utd2lkdGg6MTsiLz48dGV4dCBmaWxsPSIjMDAwMDAwIiBmb250LWZhbWlseT0ic2Fucy1zZXJpZiIgZm9udC1zaXplPSIxNCIgbGVuZ3RoQWRqdXN0PSJzcGFjaW5nIiB0ZXh0TGVuZ3RoPSIxMjMuNzM3MyIgeD0iNDUxIiB5PSIxODQuMTg5NSI+RGF0ZSBleHBpcmF0aW9uRGF0ZTwvdGV4dD48bGluZSBzdHlsZT0ic3Ryb2tlOiMxODE4MTg7c3Ryb2tlLXdpZHRoOjAuNTsiIHgxPSI0MzIiIHgyPSI1NzkuNzM3MyIgeTE9IjE5MS4yNjU2IiB5Mj0iMTkxLjI2NTYiLz48L2c+PCEtLWNsYXNzIFBsYW5EVE8tLT48ZyBpZD0iZWxlbV9QbGFuRFRPIj48cmVjdCBjb2RlTGluZT0iNDgiIGZpbGw9IiNGMUYxRjEiIGhlaWdodD0iMTAwLjgyODEiIGlkPSJQbGFuRFRPIiByeD0iMi41IiByeT0iMi41IiBzdHlsZT0ic3Ryb2tlOiMxODE4MTg7c3Ryb2tlLXdpZHRoOjAuNTsiIHdpZHRoPSIyMTQuMzIzMiIgeD0iNyIgeT0iMjg2LjEwOTQiLz48ZWxsaXBzZSBjeD0iODEuMTI1NSIgY3k9IjMwMi4xMDk0IiBmaWxsPSIjQUREMUIyIiByeD0iMTEiIHJ5PSIxMSIgc3R5bGU9InN0cm9rZTojMTgxODE4O3N0cm9rZS13aWR0aDoxOyIvPjxwYXRoIGQ9Ik04My44OTExLDI5Ny45ODQ0IFE4NC4wNDc0LDI5Ny43NjU2IDg0LjIzNDksMjk3LjY1NjMgUTg0LjQyMjQsMjk3LjU0NjkgODQuNjQxMSwyOTcuNTQ2OSBRODUuMDE2MSwyOTcuNTQ2OSA4NS4yNTA1LDI5Ny44MTI1IFE4NS40ODQ5LDI5OC4wNjI1IDg1LjQ4NDksMjk4LjY3MTkgTDg1LjQ4NDksMzAwLjEyNSBRODUuNDg0OSwzMDAuNzM0NCA4NS4yNTA1LDMwMSBRODUuMDE2MSwzMDEuMjY1NiA4NC42NDExLDMwMS4yNjU2IFE4NC4yOTc0LDMwMS4yNjU2IDg0LjA5NDIsMzAxLjA2MjUgUTgzLjg5MTEsMzAwLjg3NSA4My43ODE3LDMwMC4zNTk0IFE4My43MzQ5LDMwMCA4My41NDc0LDI5OS44MTI1IFE4My4yMTkyLDI5OS40Mzc1IDgyLjYwOTksMjk5LjIxODggUTgyLjAwMDUsMjk5IDgxLjM3NTUsMjk5IFE4MC42MDk5LDI5OSA3OS45NjkyLDI5OS4zMjgxIFE3OS4zNDQyLDI5OS42NTYzIDc4Ljg0NDIsMzAwLjQwNjMgUTc4LjM1OTksMzAxLjE1NjMgNzguMzU5OSwzMDIuMTg3NSBMNzguMzU5OSwzMDMuMjgxMyBRNzguMzU5OSwzMDQuNTE1NiA3OS4yNTA1LDMwNS4zNDM4IFE4MC4xNDExLDMwNi4xNTYzIDgxLjczNDksMzA2LjE1NjMgUTgyLjY3MjQsMzA2LjE1NjMgODMuMzI4NiwzMDUuOTA2MyBRODMuNzE5MiwzMDUuNzUgODQuMTQxMSwzMDUuMzEyNSBRODQuNDA2NywzMDUuMDQ2OSA4NC41NDc0LDMwNC45Njg4IFE4NC43MDM2LDMwNC44OTA2IDg0LjkwNjcsMzA0Ljg5MDYgUTg1LjIzNDksMzA0Ljg5MDYgODUuNDg0OSwzMDUuMTU2MyBRODUuNzUwNSwzMDUuNDA2MyA4NS43NTA1LDMwNS43NSBRODUuNzUwNSwzMDYuMDkzOCA4NS40MDY3LDMwNi41IFE4NC45MDY3LDMwNy4wNzgxIDg0LjEwOTksMzA3LjQwNjMgUTgzLjAzMTcsMzA3Ljg1OTQgODEuNzM0OSwzMDcuODU5NCBRODAuMjE5MiwzMDcuODU5NCA3OS4wMTYxLDMwNy4yMzQ0IFE3OC4wMzE3LDMwNi43MzQ0IDc3LjM0NDIsMzA1LjY3MTkgUTc2LjY1NjcsMzA0LjU5MzggNzYuNjU2NywzMDMuMzEyNSBMNzYuNjU2NywzMDIuMTU2MyBRNzYuNjU2NywzMDAuODI4MSA3Ny4yNjYxLDI5OS42ODc1IFE3Ny44OTExLDI5OC41MzEzIDc4Ljk4NDksMjk3LjkyMTkgUTgwLjA3ODYsMjk3LjI5NjkgODEuMzEzLDI5Ny4yOTY5IFE4Mi4wNDc0LDI5Ny4yOTY5IDgyLjY4OCwyOTcuNDY4OCBRODMuMzQ0MiwyOTcuNjI1IDgzLjg5MTEsMjk3Ljk4NDQgWiAiIGZpbGw9IiMwMDAwMDAiLz48dGV4dCBmaWxsPSIjMDAwMDAwIiBmb250LWZhbWlseT0ic2Fucy1zZXJpZiIgZm9udC1zaXplPSIxNCIgbGVuZ3RoQWRqdXN0PSJzcGFjaW5nIiB0ZXh0TGVuZ3RoPSI1Ny41NzIzIiB4PSIxMDEuNjI1NSIgeT0iMzA3LjgzNzkiPlBsYW5EVE88L3RleHQ+PGxpbmUgc3R5bGU9InN0cm9rZTojMTgxODE4O3N0cm9rZS13aWR0aDowLjU7IiB4MT0iOCIgeDI9IjIyMC4zMjMyIiB5MT0iMzE4LjEwOTQiIHkyPSIzMTguMTA5NCIvPjxlbGxpcHNlIGN4PSIxOCIgY3k9IjMzMi40MTQxIiBmaWxsPSJ0cmFuc3BhcmVudCIgcng9IjMiIHJ5PSIzIiBzdHlsZT0ic3Ryb2tlOiMwMzgwNDg7c3Ryb2tlLXdpZHRoOjE7Ii8+PHRleHQgZmlsbD0iIzAwMDAwMCIgZm9udC1mYW1pbHk9InNhbnMtc2VyaWYiIGZvbnQtc2l6ZT0iMTQiIGxlbmd0aEFkanVzdD0ic3BhY2luZyIgdGV4dExlbmd0aD0iNzUuNDgyNCIgeD0iMjciIHk9IjMzNi42NDI2Ij5TdHJpbmcgbmFtZTwvdGV4dD48ZWxsaXBzZSBjeD0iMTgiIGN5PSIzNTAuMDIzNCIgZmlsbD0idHJhbnNwYXJlbnQiIHJ4PSIzIiByeT0iMyIgc3R5bGU9InN0cm9rZTojMDM4MDQ4O3N0cm9rZS13aWR0aDoxOyIvPjx0ZXh0IGZpbGw9IiMwMDAwMDAiIGZvbnQtZmFtaWx5PSJzYW5zLXNlcmlmIiBmb250LXNpemU9IjE0IiBsZW5ndGhBZGp1c3Q9InNwYWNpbmciIHRleHRMZW5ndGg9IjE0NS41MjM0IiB4PSIyNyIgeT0iMzU0LjI1MiI+RG91YmxlIG1vbnRobHlBbW91bnQ8L3RleHQ+PGVsbGlwc2UgY3g9IjE4IiBjeT0iMzY3LjYzMjgiIGZpbGw9InRyYW5zcGFyZW50IiByeD0iMyIgcnk9IjMiIHN0eWxlPSJzdHJva2U6IzAzODA0ODtzdHJva2Utd2lkdGg6MTsiLz48dGV4dCBmaWxsPSIjMDAwMDAwIiBmb250LWZhbWlseT0ic2Fucy1zZXJpZiIgZm9udC1zaXplPSIxNCIgbGVuZ3RoQWRqdXN0PSJzcGFjaW5nIiB0ZXh0TGVuZ3RoPSIxODguMzIzMiIgeD0iMjciIHk9IjM3MS44NjEzIj5JbnRlZ2VyIHZhbGlkaXR5UGVyaW9kSW5Nb250aHM8L3RleHQ+PGxpbmUgc3R5bGU9InN0cm9rZTojMTgxODE4O3N0cm9rZS13aWR0aDowLjU7IiB4MT0iOCIgeDI9IjIyMC4zMjMyIiB5MT0iMzc4LjkzNzUiIHkyPSIzNzguOTM3NSIvPjwvZz48IS0tY2xhc3MgQ2FyZE1hcHBlci0tPjxnIGlkPSJlbGVtX0NhcmRNYXBwZXIiPjxyZWN0IGNvZGVMaW5lPSI1NSIgZmlsbD0iI0YxRjFGMSIgaGVpZ2h0PSI4My4yMTg4IiBpZD0iQ2FyZE1hcHBlciIgcng9IjIuNSIgcnk9IjIuNSIgc3R5bGU9InN0cm9rZTojMTgxODE4O3N0cm9rZS13aWR0aDowLjU7IiB3aWR0aD0iMTk5LjQ5NjEiIHg9IjQwNi41IiB5PSIyOTUuMTA5NCIvPjxlbGxpcHNlIGN4PSI0NjMuMDkxMyIgY3k9IjMxMS4xMDk0IiBmaWxsPSIjQUREMUIyIiByeD0iMTEiIHJ5PSIxMSIgc3R5bGU9InN0cm9rZTojMTgxODE4O3N0cm9rZS13aWR0aDoxOyIvPjxwYXRoIGQ9Ik00NjUuODU2OSwzMDYuOTg0NCBRNDY2LjAxMzIsMzA2Ljc2NTYgNDY2LjIwMDcsMzA2LjY1NjMgUTQ2Ni4zODgyLDMwNi41NDY5IDQ2Ni42MDY5LDMwNi41NDY5IFE0NjYuOTgxOSwzMDYuNTQ2OSA0NjcuMjE2MywzMDYuODEyNSBRNDY3LjQ1MDcsMzA3LjA2MjUgNDY3LjQ1MDcsMzA3LjY3MTkgTDQ2Ny40NTA3LDMwOS4xMjUgUTQ2Ny40NTA3LDMwOS43MzQ0IDQ2Ny4yMTYzLDMxMCBRNDY2Ljk4MTksMzEwLjI2NTYgNDY2LjYwNjksMzEwLjI2NTYgUTQ2Ni4yNjMyLDMxMC4yNjU2IDQ2Ni4wNjAxLDMxMC4wNjI1IFE0NjUuODU2OSwzMDkuODc1IDQ2NS43NDc2LDMwOS4zNTk0IFE0NjUuNzAwNywzMDkgNDY1LjUxMzIsMzA4LjgxMjUgUTQ2NS4xODUxLDMwOC40Mzc1IDQ2NC41NzU3LDMwOC4yMTg4IFE0NjMuOTY2MywzMDggNDYzLjM0MTMsMzA4IFE0NjIuNTc1NywzMDggNDYxLjkzNTEsMzA4LjMyODEgUTQ2MS4zMTAxLDMwOC42NTYzIDQ2MC44MTAxLDMwOS40MDYzIFE0NjAuMzI1NywzMTAuMTU2MyA0NjAuMzI1NywzMTEuMTg3NSBMNDYwLjMyNTcsMzEyLjI4MTMgUTQ2MC4zMjU3LDMxMy41MTU2IDQ2MS4yMTYzLDMxNC4zNDM4IFE0NjIuMTA2OSwzMTUuMTU2MyA0NjMuNzAwNywzMTUuMTU2MyBRNDY0LjYzODIsMzE1LjE1NjMgNDY1LjI5NDQsMzE0LjkwNjMgUTQ2NS42ODUxLDMxNC43NSA0NjYuMTA2OSwzMTQuMzEyNSBRNDY2LjM3MjYsMzE0LjA0NjkgNDY2LjUxMzIsMzEzLjk2ODggUTQ2Ni42Njk0LDMxMy44OTA2IDQ2Ni44NzI2LDMxMy44OTA2IFE0NjcuMjAwNywzMTMuODkwNiA0NjcuNDUwNywzMTQuMTU2MyBRNDY3LjcxNjMsMzE0LjQwNjMgNDY3LjcxNjMsMzE0Ljc1IFE0NjcuNzE2MywzMTUuMDkzOCA0NjcuMzcyNiwzMTUuNSBRNDY2Ljg3MjYsMzE2LjA3ODEgNDY2LjA3NTcsMzE2LjQwNjMgUTQ2NC45OTc2LDMxNi44NTk0IDQ2My43MDA3LDMxNi44NTk0IFE0NjIuMTg1MSwzMTYuODU5NCA0NjAuOTgxOSwzMTYuMjM0NCBRNDU5Ljk5NzYsMzE1LjczNDQgNDU5LjMxMDEsMzE0LjY3MTkgUTQ1OC42MjI2LDMxMy41OTM4IDQ1OC42MjI2LDMxMi4zMTI1IEw0NTguNjIyNiwzMTEuMTU2MyBRNDU4LjYyMjYsMzA5LjgyODEgNDU5LjIzMTksMzA4LjY4NzUgUTQ1OS44NTY5LDMwNy41MzEzIDQ2MC45NTA3LDMwNi45MjE5IFE0NjIuMDQ0NCwzMDYuMjk2OSA0NjMuMjc4OCwzMDYuMjk2OSBRNDY0LjAxMzIsMzA2LjI5NjkgNDY0LjY1MzgsMzA2LjQ2ODggUTQ2NS4zMTAxLDMwNi42MjUgNDY1Ljg1NjksMzA2Ljk4NDQgWiAiIGZpbGw9IiMwMDAwMDAiLz48dGV4dCBmaWxsPSIjMDAwMDAwIiBmb250LWZhbWlseT0ic2Fucy1zZXJpZiIgZm9udC1zaXplPSIxNCIgbGVuZ3RoQWRqdXN0PSJzcGFjaW5nIiB0ZXh0TGVuZ3RoPSI3Ny44MTM1IiB4PSI0ODMuNTkxMyIgeT0iMzE2LjgzNzkiPkNhcmRNYXBwZXI8L3RleHQ+PGxpbmUgc3R5bGU9InN0cm9rZTojMTgxODE4O3N0cm9rZS13aWR0aDowLjU7IiB4MT0iNDA3LjUiIHgyPSI2MDQuOTk2MSIgeTE9IjMyNy4xMDk0IiB5Mj0iMzI3LjEwOTQiLz48bGluZSBzdHlsZT0ic3Ryb2tlOiMxODE4MTg7c3Ryb2tlLXdpZHRoOjAuNTsiIHgxPSI0MDcuNSIgeDI9IjYwNC45OTYxIiB5MT0iMzM1LjEwOTQiIHkyPSIzMzUuMTA5NCIvPjxlbGxpcHNlIGN4PSI0MTcuNSIgY3k9IjM0OS40MTQxIiBmaWxsPSIjODRCRTg0IiByeD0iMyIgcnk9IjMiIHN0eWxlPSJzdHJva2U6IzAzODA0ODtzdHJva2Utd2lkdGg6MTsiLz48dGV4dCBmaWxsPSIjMDAwMDAwIiBmb250LWZhbWlseT0ic2Fucy1zZXJpZiIgZm9udC1zaXplPSIxNCIgbGVuZ3RoQWRqdXN0PSJzcGFjaW5nIiB0ZXh0TGVuZ3RoPSIxNzMuNDk2MSIgeD0iNDI2LjUiIHk9IjM1My42NDI2Ij5DYXJkIHRvRW50aXR5KENhcmREVE8gZHRvKTwvdGV4dD48ZWxsaXBzZSBjeD0iNDE3LjUiIGN5PSIzNjcuMDIzNCIgZmlsbD0iIzg0QkU4NCIgcng9IjMiIHJ5PSIzIiBzdHlsZT0ic3Ryb2tlOiMwMzgwNDg7c3Ryb2tlLXdpZHRoOjE7Ii8+PHRleHQgZmlsbD0iIzAwMDAwMCIgZm9udC1mYW1pbHk9InNhbnMtc2VyaWYiIGZvbnQtc2l6ZT0iMTQiIGxlbmd0aEFkanVzdD0ic3BhY2luZyIgdGV4dExlbmd0aD0iMTY4LjA0MSIgeD0iNDI2LjUiIHk9IjM3MS4yNTIiPkNhcmREVE8gdG9EdG8oQ2FyZCBjYXJkKTwvdGV4dD48L2c+PCEtLWNsYXNzIFBsYW5NYXBwZXItLT48ZyBpZD0iZWxlbV9QbGFuTWFwcGVyIj48cmVjdCBjb2RlTGluZT0iNjAiIGZpbGw9IiNGMUYxRjEiIGhlaWdodD0iODMuMjE4OCIgaWQ9IlBsYW5NYXBwZXIiIHJ4PSIyLjUiIHJ5PSIyLjUiIHN0eWxlPSJzdHJva2U6IzE4MTgxODtzdHJva2Utd2lkdGg6MC41OyIgd2lkdGg9IjE5NC44NDc3IiB4PSIxNi41IiB5PSI1MTcuNjA5NCIvPjxlbGxpcHNlIGN4PSI3MS45MjkyIiBjeT0iNTMzLjYwOTQiIGZpbGw9IiNBREQxQjIiIHJ4PSIxMSIgcnk9IjExIiBzdHlsZT0ic3Ryb2tlOiMxODE4MTg7c3Ryb2tlLXdpZHRoOjE7Ii8+PHBhdGggZD0iTTc0LjY5NDgsNTI5LjQ4NDQgUTc0Ljg1MTEsNTI5LjI2NTYgNzUuMDM4Niw1MjkuMTU2MyBRNzUuMjI2MSw1MjkuMDQ2OSA3NS40NDQ4LDUyOS4wNDY5IFE3NS44MTk4LDUyOS4wNDY5IDc2LjA1NDIsNTI5LjMxMjUgUTc2LjI4ODYsNTI5LjU2MjUgNzYuMjg4Niw1MzAuMTcxOSBMNzYuMjg4Niw1MzEuNjI1IFE3Ni4yODg2LDUzMi4yMzQ0IDc2LjA1NDIsNTMyLjUgUTc1LjgxOTgsNTMyLjc2NTYgNzUuNDQ0OCw1MzIuNzY1NiBRNzUuMTAxMSw1MzIuNzY1NiA3NC44OTc5LDUzMi41NjI1IFE3NC42OTQ4LDUzMi4zNzUgNzQuNTg1NCw1MzEuODU5NCBRNzQuNTM4Niw1MzEuNSA3NC4zNTExLDUzMS4zMTI1IFE3NC4wMjI5LDUzMC45Mzc1IDczLjQxMzYsNTMwLjcxODggUTcyLjgwNDIsNTMwLjUgNzIuMTc5Miw1MzAuNSBRNzEuNDEzNiw1MzAuNSA3MC43NzI5LDUzMC44MjgxIFE3MC4xNDc5LDUzMS4xNTYzIDY5LjY0NzksNTMxLjkwNjMgUTY5LjE2MzYsNTMyLjY1NjMgNjkuMTYzNiw1MzMuNjg3NSBMNjkuMTYzNiw1MzQuNzgxMyBRNjkuMTYzNiw1MzYuMDE1NiA3MC4wNTQyLDUzNi44NDM4IFE3MC45NDQ4LDUzNy42NTYzIDcyLjUzODYsNTM3LjY1NjMgUTczLjQ3NjEsNTM3LjY1NjMgNzQuMTMyMyw1MzcuNDA2MyBRNzQuNTIyOSw1MzcuMjUgNzQuOTQ0OCw1MzYuODEyNSBRNzUuMjEwNCw1MzYuNTQ2OSA3NS4zNTExLDUzNi40Njg4IFE3NS41MDczLDUzNi4zOTA2IDc1LjcxMDQsNTM2LjM5MDYgUTc2LjAzODYsNTM2LjM5MDYgNzYuMjg4Niw1MzYuNjU2MyBRNzYuNTU0Miw1MzYuOTA2MyA3Ni41NTQyLDUzNy4yNSBRNzYuNTU0Miw1MzcuNTkzOCA3Ni4yMTA0LDUzOCBRNzUuNzEwNCw1MzguNTc4MSA3NC45MTM2LDUzOC45MDYzIFE3My44MzU0LDUzOS4zNTk0IDcyLjUzODYsNTM5LjM1OTQgUTcxLjAyMjksNTM5LjM1OTQgNjkuODE5OCw1MzguNzM0NCBRNjguODM1NCw1MzguMjM0NCA2OC4xNDc5LDUzNy4xNzE5IFE2Ny40NjA0LDUzNi4wOTM4IDY3LjQ2MDQsNTM0LjgxMjUgTDY3LjQ2MDQsNTMzLjY1NjMgUTY3LjQ2MDQsNTMyLjMyODEgNjguMDY5OCw1MzEuMTg3NSBRNjguNjk0OCw1MzAuMDMxMyA2OS43ODg2LDUyOS40MjE5IFE3MC44ODIzLDUyOC43OTY5IDcyLjExNjcsNTI4Ljc5NjkgUTcyLjg1MTEsNTI4Ljc5NjkgNzMuNDkxNyw1MjguOTY4OCBRNzQuMTQ3OSw1MjkuMTI1IDc0LjY5NDgsNTI5LjQ4NDQgWiAiIGZpbGw9IiMwMDAwMDAiLz48dGV4dCBmaWxsPSIjMDAwMDAwIiBmb250LWZhbWlseT0ic2Fucy1zZXJpZiIgZm9udC1zaXplPSIxNCIgbGVuZ3RoQWRqdXN0PSJzcGFjaW5nIiB0ZXh0TGVuZ3RoPSI3NS40ODkzIiB4PSI5Mi40MjkyIiB5PSI1MzkuMzM3OSI+UGxhbk1hcHBlcjwvdGV4dD48bGluZSBzdHlsZT0ic3Ryb2tlOiMxODE4MTg7c3Ryb2tlLXdpZHRoOjAuNTsiIHgxPSIxNy41IiB4Mj0iMjEwLjM0NzciIHkxPSI1NDkuNjA5NCIgeTI9IjU0OS42MDk0Ii8+PGxpbmUgc3R5bGU9InN0cm9rZTojMTgxODE4O3N0cm9rZS13aWR0aDowLjU7IiB4MT0iMTcuNSIgeDI9IjIxMC4zNDc3IiB5MT0iNTU3LjYwOTQiIHkyPSI1NTcuNjA5NCIvPjxlbGxpcHNlIGN4PSIyNy41IiBjeT0iNTcxLjkxNDEiIGZpbGw9IiM4NEJFODQiIHJ4PSIzIiByeT0iMyIgc3R5bGU9InN0cm9rZTojMDM4MDQ4O3N0cm9rZS13aWR0aDoxOyIvPjx0ZXh0IGZpbGw9IiMwMDAwMDAiIGZvbnQtZmFtaWx5PSJzYW5zLXNlcmlmIiBmb250LXNpemU9IjE0IiBsZW5ndGhBZGp1c3Q9InNwYWNpbmciIHRleHRMZW5ndGg9IjE2OC44NDc3IiB4PSIzNi41IiB5PSI1NzYuMTQyNiI+UGxhbiB0b0VudGl0eShQbGFuRFRPIGR0byk8L3RleHQ+PGVsbGlwc2UgY3g9IjI3LjUiIGN5PSI1ODkuNTIzNCIgZmlsbD0iIzg0QkU4NCIgcng9IjMiIHJ5PSIzIiBzdHlsZT0ic3Ryb2tlOiMwMzgwNDg7c3Ryb2tlLXdpZHRoOjE7Ii8+PHRleHQgZmlsbD0iIzAwMDAwMCIgZm9udC1mYW1pbHk9InNhbnMtc2VyaWYiIGZvbnQtc2l6ZT0iMTQiIGxlbmd0aEFkanVzdD0ic3BhY2luZyIgdGV4dExlbmd0aD0iMTYzLjM5MjYiIHg9IjM2LjUiIHk9IjU5My43NTIiPlBsYW5EVE8gdG9EdG8oUGxhbiBjYXJkKTwvdGV4dD48L2c+PCEtLWNsYXNzIElDYXJkU2VydmljZS0tPjxnIGlkPSJlbGVtX0lDYXJkU2VydmljZSI+PHJlY3QgY29kZUxpbmU9IjY2IiBmaWxsPSIjRjFGMUYxIiBoZWlnaHQ9IjExOC40Mzc1IiBpZD0iSUNhcmRTZXJ2aWNlIiByeD0iMi41IiByeT0iMi41IiBzdHlsZT0ic3Ryb2tlOiMxODE4MTg7c3Ryb2tlLXdpZHRoOjAuNTsiIHdpZHRoPSIzMzQuOTg0NCIgeD0iNjQwLjUiIHk9IjI3Ny42MDk0Ii8+PGVsbGlwc2UgY3g9Ijc2My4yODM3IiBjeT0iMjkzLjYwOTQiIGZpbGw9IiNCNEE3RTUiIHJ4PSIxMSIgcnk9IjExIiBzdHlsZT0ic3Ryb2tlOiMxODE4MTg7c3Ryb2tlLXdpZHRoOjE7Ii8+PHBhdGggZD0iTTc2NC4yMzY4LDI5MC4yNSBMNzY0LjIzNjgsMjk2LjkwNjMgTDc2NS45NTU2LDI5Ni45MDYzIFE3NjYuNTY0OSwyOTYuOTA2MyA3NjYuODMwNiwyOTcuMTQwNiBRNzY3LjA5NjIsMjk3LjM3NSA3NjcuMDk2MiwyOTcuNzY1NiBRNzY3LjA5NjIsMjk4LjE0MDYgNzY2LjgzMDYsMjk4LjM3NSBRNzY2LjU2NDksMjk4LjYwOTQgNzY1Ljk1NTYsMjk4LjYwOTQgTDc2MC44MTQ5LDI5OC42MDk0IFE3NjAuMjA1NiwyOTguNjA5NCA3NTkuOTM5OSwyOTguMzc1IFE3NTkuNjc0MywyOTguMTQwNiA3NTkuNjc0MywyOTcuNzUgUTc1OS42NzQzLDI5Ny4zNzUgNzU5LjkzOTksMjk3LjE0MDYgUTc2MC4yMDU2LDI5Ni45MDYzIDc2MC44MTQ5LDI5Ni45MDYzIEw3NjIuNTMzNywyOTYuOTA2MyBMNzYyLjUzMzcsMjkwLjI1IEw3NjAuODE0OSwyOTAuMjUgUTc2MC4yMDU2LDI5MC4yNSA3NTkuOTM5OSwyOTAuMDE1NiBRNzU5LjY3NDMsMjg5Ljc4MTMgNzU5LjY3NDMsMjg5LjM5MDYgUTc1OS42NzQzLDI4OS4wMTU2IDc1OS45Mzk5LDI4OC43ODEzIFE3NjAuMjA1NiwyODguNTQ2OSA3NjAuODE0OSwyODguNTQ2OSBMNzY1Ljk1NTYsMjg4LjU0NjkgUTc2Ni41NjQ5LDI4OC41NDY5IDc2Ni44MzA2LDI4OC43ODEzIFE3NjcuMDk2MiwyODkuMDE1NiA3NjcuMDk2MiwyODkuMzkwNiBRNzY3LjA5NjIsMjg5Ljc4MTMgNzY2LjgzMDYsMjkwLjAxNTYgUTc2Ni41NjQ5LDI5MC4yNSA3NjUuOTU1NiwyOTAuMjUgTDc2NC4yMzY4LDI5MC4yNSBaICIgZmlsbD0iIzAwMDAwMCIvPjx0ZXh0IGZpbGw9IiMwMDAwMDAiIGZvbnQtZmFtaWx5PSJzYW5zLXNlcmlmIiBmb250LXNpemU9IjE0IiBmb250LXN0eWxlPSJpdGFsaWMiIGxlbmd0aEFkanVzdD0ic3BhY2luZyIgdGV4dExlbmd0aD0iODAuOTE3IiB4PSI3ODMuNzgzNyIgeT0iMjk5LjMzNzkiPklDYXJkU2VydmljZTwvdGV4dD48bGluZSBzdHlsZT0ic3Ryb2tlOiMxODE4MTg7c3Ryb2tlLXdpZHRoOjAuNTsiIHgxPSI2NDEuNSIgeDI9Ijk3NC40ODQ0IiB5MT0iMzA5LjYwOTQiIHkyPSIzMDkuNjA5NCIvPjxsaW5lIHN0eWxlPSJzdHJva2U6IzE4MTgxODtzdHJva2Utd2lkdGg6MC41OyIgeDE9IjY0MS41IiB4Mj0iOTc0LjQ4NDQiIHkxPSIzMTcuNjA5NCIgeTI9IjMxNy42MDk0Ii8+PGVsbGlwc2UgY3g9IjY1MS41IiBjeT0iMzMxLjkxNDEiIGZpbGw9IiM4NEJFODQiIHJ4PSIzIiByeT0iMyIgc3R5bGU9InN0cm9rZTojMDM4MDQ4O3N0cm9rZS13aWR0aDoxOyIvPjx0ZXh0IGZpbGw9IiMwMDAwMDAiIGZvbnQtZmFtaWx5PSJzYW5zLXNlcmlmIiBmb250LXNpemU9IjE0IiBsZW5ndGhBZGp1c3Q9InNwYWNpbmciIHRleHRMZW5ndGg9IjI2Mi45Mzc1IiB4PSI2NjAuNSIgeT0iMzM2LjE0MjYiPkNhcmREVE8gY3JlYXRlQ2FyZChDYXJkRFRPIGNhcmREVE8pPC90ZXh0PjxlbGxpcHNlIGN4PSI2NTEuNSIgY3k9IjM0OS41MjM0IiBmaWxsPSIjODRCRTg0IiByeD0iMyIgcnk9IjMiIHN0eWxlPSJzdHJva2U6IzAzODA0ODtzdHJva2Utd2lkdGg6MTsiLz48dGV4dCBmaWxsPSIjMDAwMDAwIiBmb250LWZhbWlseT0ic2Fucy1zZXJpZiIgZm9udC1zaXplPSIxNCIgbGVuZ3RoQWRqdXN0PSJzcGFjaW5nIiB0ZXh0TGVuZ3RoPSIxODUuMjA2MSIgeD0iNjYwLjUiIHk9IjM1My43NTIiPnZvaWQgcmV2b2tlQ2FyZChMb25nIGNhcmRJZCk8L3RleHQ+PGVsbGlwc2UgY3g9IjY1MS41IiBjeT0iMzY3LjEzMjgiIGZpbGw9IiM4NEJFODQiIHJ4PSIzIiByeT0iMyIgc3R5bGU9InN0cm9rZTojMDM4MDQ4O3N0cm9rZS13aWR0aDoxOyIvPjx0ZXh0IGZpbGw9IiMwMDAwMDAiIGZvbnQtZmFtaWx5PSJzYW5zLXNlcmlmIiBmb250LXNpemU9IjE0IiBsZW5ndGhBZGp1c3Q9InNwYWNpbmciIHRleHRMZW5ndGg9IjI3MS41NTc2IiB4PSI2NjAuNSIgeT0iMzcxLjM2MTMiPkxpc3QmbHQ7Q2FyZERUTyZndDsgZ2V0VXNlckNhcmRzKExvbmcgdXNlcklkKTwvdGV4dD48ZWxsaXBzZSBjeD0iNjUxLjUiIGN5PSIzODQuNzQyMiIgZmlsbD0iIzg0QkU4NCIgcng9IjMiIHJ5PSIzIiBzdHlsZT0ic3Ryb2tlOiMwMzgwNDg7c3Ryb2tlLXdpZHRoOjE7Ii8+PHRleHQgZmlsbD0iIzAwMDAwMCIgZm9udC1mYW1pbHk9InNhbnMtc2VyaWYiIGZvbnQtc2l6ZT0iMTQiIGxlbmd0aEFkanVzdD0ic3BhY2luZyIgdGV4dExlbmd0aD0iMzA4Ljk4NDQiIHg9IjY2MC41IiB5PSIzODguOTcwNyI+dm9pZCB1cGRhdGVCYWxhbmNlKExvbmcgY2FyZElkLCBEb3VibGUgYW1vdW50KTwvdGV4dD48L2c+PCEtLWNsYXNzIElQbGFuU2VydmljZS0tPjxnIGlkPSJlbGVtX0lQbGFuU2VydmljZSI+PHJlY3QgY29kZUxpbmU9Ijc0IiBmaWxsPSIjRjFGMUYxIiBoZWlnaHQ9IjExOC40Mzc1IiBpZD0iSVBsYW5TZXJ2aWNlIiByeD0iMi41IiByeT0iMi41IiBzdHlsZT0ic3Ryb2tlOiMxODE4MTg7c3Ryb2tlLXdpZHRoOjAuNTsiIHdpZHRoPSIzNjYuMDY3NCIgeD0iMTU2OSIgeT0iMjc3LjYwOTQiLz48ZWxsaXBzZSBjeD0iMTcwOC40ODczIiBjeT0iMjkzLjYwOTQiIGZpbGw9IiNCNEE3RTUiIHJ4PSIxMSIgcnk9IjExIiBzdHlsZT0ic3Ryb2tlOiMxODE4MTg7c3Ryb2tlLXdpZHRoOjE7Ii8+PHBhdGggZD0iTTE3MDkuNDQwNCwyOTAuMjUgTDE3MDkuNDQwNCwyOTYuOTA2MyBMMTcxMS4xNTkyLDI5Ni45MDYzIFExNzExLjc2ODYsMjk2LjkwNjMgMTcxMi4wMzQyLDI5Ny4xNDA2IFExNzEyLjI5OTgsMjk3LjM3NSAxNzEyLjI5OTgsMjk3Ljc2NTYgUTE3MTIuMjk5OCwyOTguMTQwNiAxNzEyLjAzNDIsMjk4LjM3NSBRMTcxMS43Njg2LDI5OC42MDk0IDE3MTEuMTU5MiwyOTguNjA5NCBMMTcwNi4wMTg2LDI5OC42MDk0IFExNzA1LjQwOTIsMjk4LjYwOTQgMTcwNS4xNDM2LDI5OC4zNzUgUTE3MDQuODc3OSwyOTguMTQwNiAxNzA0Ljg3NzksMjk3Ljc1IFExNzA0Ljg3NzksMjk3LjM3NSAxNzA1LjE0MzYsMjk3LjE0MDYgUTE3MDUuNDA5MiwyOTYuOTA2MyAxNzA2LjAxODYsMjk2LjkwNjMgTDE3MDcuNzM3MywyOTYuOTA2MyBMMTcwNy43MzczLDI5MC4yNSBMMTcwNi4wMTg2LDI5MC4yNSBRMTcwNS40MDkyLDI5MC4yNSAxNzA1LjE0MzYsMjkwLjAxNTYgUTE3MDQuODc3OSwyODkuNzgxMyAxNzA0Ljg3NzksMjg5LjM5MDYgUTE3MDQuODc3OSwyODkuMDE1NiAxNzA1LjE0MzYsMjg4Ljc4MTMgUTE3MDUuNDA5MiwyODguNTQ2OSAxNzA2LjAxODYsMjg4LjU0NjkgTDE3MTEuMTU5MiwyODguNTQ2OSBRMTcxMS43Njg2LDI4OC41NDY5IDE3MTIuMDM0MiwyODguNzgxMyBRMTcxMi4yOTk4LDI4OS4wMTU2IDE3MTIuMjk5OCwyODkuMzkwNiBRMTcxMi4yOTk4LDI4OS43ODEzIDE3MTIuMDM0MiwyOTAuMDE1NiBRMTcxMS43Njg2LDI5MC4yNSAxNzExLjE1OTIsMjkwLjI1IEwxNzA5LjQ0MDQsMjkwLjI1IFogIiBmaWxsPSIjMDAwMDAwIi8+PHRleHQgZmlsbD0iIzAwMDAwMCIgZm9udC1mYW1pbHk9InNhbnMtc2VyaWYiIGZvbnQtc2l6ZT0iMTQiIGZvbnQtc3R5bGU9Iml0YWxpYyIgbGVuZ3RoQWRqdXN0PSJzcGFjaW5nIiB0ZXh0TGVuZ3RoPSI3OC41OTI4IiB4PSIxNzI4Ljk4NzMiIHk9IjI5OS4zMzc5Ij5JUGxhblNlcnZpY2U8L3RleHQ+PGxpbmUgc3R5bGU9InN0cm9rZTojMTgxODE4O3N0cm9rZS13aWR0aDowLjU7IiB4MT0iMTU3MCIgeDI9IjE5MzQuMDY3NCIgeTE9IjMwOS42MDk0IiB5Mj0iMzA5LjYwOTQiLz48bGluZSBzdHlsZT0ic3Ryb2tlOiMxODE4MTg7c3Ryb2tlLXdpZHRoOjAuNTsiIHgxPSIxNTcwIiB4Mj0iMTkzNC4wNjc0IiB5MT0iMzE3LjYwOTQiIHkyPSIzMTcuNjA5NCIvPjxlbGxpcHNlIGN4PSIxNTgwIiBjeT0iMzMxLjkxNDEiIGZpbGw9IiM4NEJFODQiIHJ4PSIzIiByeT0iMyIgc3R5bGU9InN0cm9rZTojMDM4MDQ4O3N0cm9rZS13aWR0aDoxOyIvPjx0ZXh0IGZpbGw9IiMwMDAwMDAiIGZvbnQtZmFtaWx5PSJzYW5zLXNlcmlmIiBmb250LXNpemU9IjE0IiBsZW5ndGhBZGp1c3Q9InNwYWNpbmciIHRleHRMZW5ndGg9IjI1NS4xOTkyIiB4PSIxNTg5IiB5PSIzMzYuMTQyNiI+UGxhbkRUTyBjcmVhdGVQbGFuKFBsYW5EVE8gcGxhbkRUTyk8L3RleHQ+PGVsbGlwc2UgY3g9IjE1ODAiIGN5PSIzNDkuNTIzNCIgZmlsbD0iIzg0QkU4NCIgcng9IjMiIHJ5PSIzIiBzdHlsZT0ic3Ryb2tlOiMwMzgwNDg7c3Ryb2tlLXdpZHRoOjE7Ii8+PHRleHQgZmlsbD0iIzAwMDAwMCIgZm9udC1mYW1pbHk9InNhbnMtc2VyaWYiIGZvbnQtc2l6ZT0iMTQiIGxlbmd0aEFkanVzdD0ic3BhY2luZyIgdGV4dExlbmd0aD0iMzQwLjA2NzQiIHg9IjE1ODkiIHk9IjM1My43NTIiPlBsYW5EVE8gdXBkYXRlUGxhbihMb25nIHBsYW5JZCwgUGxhbkRUTyBwbGFuRFRPKTwvdGV4dD48ZWxsaXBzZSBjeD0iMTU4MCIgY3k9IjM2Ny4xMzI4IiBmaWxsPSIjODRCRTg0IiByeD0iMyIgcnk9IjMiIHN0eWxlPSJzdHJva2U6IzAzODA0ODtzdHJva2Utd2lkdGg6MTsiLz48dGV4dCBmaWxsPSIjMDAwMDAwIiBmb250LWZhbWlseT0ic2Fucy1zZXJpZiIgZm9udC1zaXplPSIxNCIgbGVuZ3RoQWRqdXN0PSJzcGFjaW5nIiB0ZXh0TGVuZ3RoPSIxNzguMjQwMiIgeD0iMTU4OSIgeT0iMzcxLjM2MTMiPnZvaWQgZGVsZXRlUGxhbihMb25nIHBsYW5JZCk8L3RleHQ+PGVsbGlwc2UgY3g9IjE1ODAiIGN5PSIzODQuNzQyMiIgZmlsbD0iIzg0QkU4NCIgcng9IjMiIHJ5PSIzIiBzdHlsZT0ic3Ryb2tlOiMwMzgwNDg7c3Ryb2tlLXdpZHRoOjE7Ii8+PHRleHQgZmlsbD0iIzAwMDAwMCIgZm9udC1mYW1pbHk9InNhbnMtc2VyaWYiIGZvbnQtc2l6ZT0iMTQiIGxlbmd0aEFkanVzdD0ic3BhY2luZyIgdGV4dExlbmd0aD0iMTc4Ljk2NDgiIHg9IjE1ODkiIHk9IjM4OC45NzA3Ij5MaXN0Jmx0O1BsYW5EVE8mZ3Q7IGdldEFsbFBsYW5zKCk8L3RleHQ+PC9nPjwhLS1jbGFzcyBDYXJkU2VydmljZUltcGwtLT48ZyBpZD0iZWxlbV9DYXJkU2VydmljZUltcGwiPjxyZWN0IGNvZGVMaW5lPSI4MiIgZmlsbD0iI0YxRjFGMSIgaGVpZ2h0PSIxMTguNDM3NSIgaWQ9IkNhcmRTZXJ2aWNlSW1wbCIgcng9IjIuNSIgcnk9IjIuNSIgc3R5bGU9InN0cm9rZTojMTgxODE4O3N0cm9rZS13aWR0aDowLjU7IiB3aWR0aD0iMzM0Ljk4NDQiIHg9Ijk2Mi41IiB5PSI2My42MDk0Ii8+PGVsbGlwc2UgY3g9IjEwNzQuMDA0NCIgY3k9Ijc5LjYwOTQiIGZpbGw9IiNBREQxQjIiIHJ4PSIxMSIgcnk9IjExIiBzdHlsZT0ic3Ryb2tlOiMxODE4MTg7c3Ryb2tlLXdpZHRoOjE7Ii8+PHBhdGggZD0iTTEwNzYuNzcsNzUuNDg0NCBRMTA3Ni45MjYzLDc1LjI2NTYgMTA3Ny4xMTM4LDc1LjE1NjMgUTEwNzcuMzAxMyw3NS4wNDY5IDEwNzcuNTIsNzUuMDQ2OSBRMTA3Ny44OTUsNzUuMDQ2OSAxMDc4LjEyOTQsNzUuMzEyNSBRMTA3OC4zNjM4LDc1LjU2MjUgMTA3OC4zNjM4LDc2LjE3MTkgTDEwNzguMzYzOCw3Ny42MjUgUTEwNzguMzYzOCw3OC4yMzQ0IDEwNzguMTI5NCw3OC41IFExMDc3Ljg5NSw3OC43NjU2IDEwNzcuNTIsNzguNzY1NiBRMTA3Ny4xNzYzLDc4Ljc2NTYgMTA3Ni45NzMxLDc4LjU2MjUgUTEwNzYuNzcsNzguMzc1IDEwNzYuNjYwNiw3Ny44NTk0IFExMDc2LjYxMzgsNzcuNSAxMDc2LjQyNjMsNzcuMzEyNSBRMTA3Ni4wOTgxLDc2LjkzNzUgMTA3NS40ODg4LDc2LjcxODggUTEwNzQuODc5NCw3Ni41IDEwNzQuMjU0NCw3Ni41IFExMDczLjQ4ODgsNzYuNSAxMDcyLjg0ODEsNzYuODI4MSBRMTA3Mi4yMjMxLDc3LjE1NjMgMTA3MS43MjMxLDc3LjkwNjMgUTEwNzEuMjM4OCw3OC42NTYzIDEwNzEuMjM4OCw3OS42ODc1IEwxMDcxLjIzODgsODAuNzgxMyBRMTA3MS4yMzg4LDgyLjAxNTYgMTA3Mi4xMjk0LDgyLjg0MzggUTEwNzMuMDIsODMuNjU2MyAxMDc0LjYxMzgsODMuNjU2MyBRMTA3NS41NTEzLDgzLjY1NjMgMTA3Ni4yMDc1LDgzLjQwNjMgUTEwNzYuNTk4MSw4My4yNSAxMDc3LjAyLDgyLjgxMjUgUTEwNzcuMjg1Niw4Mi41NDY5IDEwNzcuNDI2Myw4Mi40Njg4IFExMDc3LjU4MjUsODIuMzkwNiAxMDc3Ljc4NTYsODIuMzkwNiBRMTA3OC4xMTM4LDgyLjM5MDYgMTA3OC4zNjM4LDgyLjY1NjMgUTEwNzguNjI5NCw4Mi45MDYzIDEwNzguNjI5NCw4My4yNSBRMTA3OC42Mjk0LDgzLjU5MzggMTA3OC4yODU2LDg0IFExMDc3Ljc4NTYsODQuNTc4MSAxMDc2Ljk4ODgsODQuOTA2MyBRMTA3NS45MTA2LDg1LjM1OTQgMTA3NC42MTM4LDg1LjM1OTQgUTEwNzMuMDk4MSw4NS4zNTk0IDEwNzEuODk1LDg0LjczNDQgUTEwNzAuOTEwNiw4NC4yMzQ0IDEwNzAuMjIzMSw4My4xNzE5IFExMDY5LjUzNTYsODIuMDkzOCAxMDY5LjUzNTYsODAuODEyNSBMMTA2OS41MzU2LDc5LjY1NjMgUTEwNjkuNTM1Niw3OC4zMjgxIDEwNzAuMTQ1LDc3LjE4NzUgUTEwNzAuNzcsNzYuMDMxMyAxMDcxLjg2MzgsNzUuNDIxOSBRMTA3Mi45NTc1LDc0Ljc5NjkgMTA3NC4xOTE5LDc0Ljc5NjkgUTEwNzQuOTI2Myw3NC43OTY5IDEwNzUuNTY2OSw3NC45Njg4IFExMDc2LjIyMzEsNzUuMTI1IDEwNzYuNzcsNzUuNDg0NCBaICIgZmlsbD0iIzAwMDAwMCIvPjx0ZXh0IGZpbGw9IiMwMDAwMDAiIGZvbnQtZmFtaWx5PSJzYW5zLXNlcmlmIiBmb250LXNpemU9IjE0IiBsZW5ndGhBZGp1c3Q9InNwYWNpbmciIHRleHRMZW5ndGg9IjEwMy40NzU2IiB4PSIxMDk0LjUwNDQiIHk9Ijg1LjMzNzkiPkNhcmRTZXJ2aWNlSW1wbDwvdGV4dD48bGluZSBzdHlsZT0ic3Ryb2tlOiMxODE4MTg7c3Ryb2tlLXdpZHRoOjAuNTsiIHgxPSI5NjMuNSIgeDI9IjEyOTYuNDg0NCIgeTE9Ijk1LjYwOTQiIHkyPSI5NS42MDk0Ii8+PGxpbmUgc3R5bGU9InN0cm9rZTojMTgxODE4O3N0cm9rZS13aWR0aDowLjU7IiB4MT0iOTYzLjUiIHgyPSIxMjk2LjQ4NDQiIHkxPSIxMDMuNjA5NCIgeTI9IjEwMy42MDk0Ii8+PGVsbGlwc2UgY3g9Ijk3My41IiBjeT0iMTE3LjkxNDEiIGZpbGw9IiM4NEJFODQiIHJ4PSIzIiByeT0iMyIgc3R5bGU9InN0cm9rZTojMDM4MDQ4O3N0cm9rZS13aWR0aDoxOyIvPjx0ZXh0IGZpbGw9IiMwMDAwMDAiIGZvbnQtZmFtaWx5PSJzYW5zLXNlcmlmIiBmb250LXNpemU9IjE0IiBsZW5ndGhBZGp1c3Q9InNwYWNpbmciIHRleHRMZW5ndGg9IjI2Mi45Mzc1IiB4PSI5ODIuNSIgeT0iMTIyLjE0MjYiPkNhcmREVE8gY3JlYXRlQ2FyZChDYXJkRFRPIGNhcmREVE8pPC90ZXh0PjxlbGxpcHNlIGN4PSI5NzMuNSIgY3k9IjEzNS41MjM0IiBmaWxsPSIjODRCRTg0IiByeD0iMyIgcnk9IjMiIHN0eWxlPSJzdHJva2U6IzAzODA0ODtzdHJva2Utd2lkdGg6MTsiLz48dGV4dCBmaWxsPSIjMDAwMDAwIiBmb250LWZhbWlseT0ic2Fucy1zZXJpZiIgZm9udC1zaXplPSIxNCIgbGVuZ3RoQWRqdXN0PSJzcGFjaW5nIiB0ZXh0TGVuZ3RoPSIxODUuMjA2MSIgeD0iOTgyLjUiIHk9IjEzOS43NTIiPnZvaWQgcmV2b2tlQ2FyZChMb25nIGNhcmRJZCk8L3RleHQ+PGVsbGlwc2UgY3g9Ijk3My41IiBjeT0iMTUzLjEzMjgiIGZpbGw9IiM4NEJFODQiIHJ4PSIzIiByeT0iMyIgc3R5bGU9InN0cm9rZTojMDM4MDQ4O3N0cm9rZS13aWR0aDoxOyIvPjx0ZXh0IGZpbGw9IiMwMDAwMDAiIGZvbnQtZmFtaWx5PSJzYW5zLXNlcmlmIiBmb250LXNpemU9IjE0IiBsZW5ndGhBZGp1c3Q9InNwYWNpbmciIHRleHRMZW5ndGg9IjI3MS41NTc2IiB4PSI5ODIuNSIgeT0iMTU3LjM2MTMiPkxpc3QmbHQ7Q2FyZERUTyZndDsgZ2V0VXNlckNhcmRzKExvbmcgdXNlcklkKTwvdGV4dD48ZWxsaXBzZSBjeD0iOTczLjUiIGN5PSIxNzAuNzQyMiIgZmlsbD0iIzg0QkU4NCIgcng9IjMiIHJ5PSIzIiBzdHlsZT0ic3Ryb2tlOiMwMzgwNDg7c3Ryb2tlLXdpZHRoOjE7Ii8+PHRleHQgZmlsbD0iIzAwMDAwMCIgZm9udC1mYW1pbHk9InNhbnMtc2VyaWYiIGZvbnQtc2l6ZT0iMTQiIGxlbmd0aEFkanVzdD0ic3BhY2luZyIgdGV4dExlbmd0aD0iMzA4Ljk4NDQiIHg9Ijk4Mi41IiB5PSIxNzQuOTcwNyI+dm9pZCB1cGRhdGVCYWxhbmNlKExvbmcgY2FyZElkLCBEb3VibGUgYW1vdW50KTwvdGV4dD48L2c+PCEtLWNsYXNzIFBsYW5TZXJ2aWNlSW1wbC0tPjxnIGlkPSJlbGVtX1BsYW5TZXJ2aWNlSW1wbCI+PHJlY3QgY29kZUxpbmU9IjkwIiBmaWxsPSIjRjFGMUYxIiBoZWlnaHQ9IjExOC40Mzc1IiBpZD0iUGxhblNlcnZpY2VJbXBsIiByeD0iMi41IiByeT0iMi41IiBzdHlsZT0ic3Ryb2tlOiMxODE4MTg7c3Ryb2tlLXdpZHRoOjAuNTsiIHdpZHRoPSIzNjYuMDY3NCIgeD0iMTczNiIgeT0iNjMuNjA5NCIvPjxlbGxpcHNlIGN4PSIxODY0LjIwOCIgY3k9Ijc5LjYwOTQiIGZpbGw9IiNBREQxQjIiIHJ4PSIxMSIgcnk9IjExIiBzdHlsZT0ic3Ryb2tlOiMxODE4MTg7c3Ryb2tlLXdpZHRoOjE7Ii8+PHBhdGggZD0iTTE4NjYuOTczNiw3NS40ODQ0IFExODY3LjEyOTksNzUuMjY1NiAxODY3LjMxNzQsNzUuMTU2MyBRMTg2Ny41MDQ5LDc1LjA0NjkgMTg2Ny43MjM2LDc1LjA0NjkgUTE4NjguMDk4Niw3NS4wNDY5IDE4NjguMzMzLDc1LjMxMjUgUTE4NjguNTY3NCw3NS41NjI1IDE4NjguNTY3NCw3Ni4xNzE5IEwxODY4LjU2NzQsNzcuNjI1IFExODY4LjU2NzQsNzguMjM0NCAxODY4LjMzMyw3OC41IFExODY4LjA5ODYsNzguNzY1NiAxODY3LjcyMzYsNzguNzY1NiBRMTg2Ny4zNzk5LDc4Ljc2NTYgMTg2Ny4xNzY4LDc4LjU2MjUgUTE4NjYuOTczNiw3OC4zNzUgMTg2Ni44NjQzLDc3Ljg1OTQgUTE4NjYuODE3NCw3Ny41IDE4NjYuNjI5OSw3Ny4zMTI1IFExODY2LjMwMTgsNzYuOTM3NSAxODY1LjY5MjQsNzYuNzE4OCBRMTg2NS4wODMsNzYuNSAxODY0LjQ1OCw3Ni41IFExODYzLjY5MjQsNzYuNSAxODYzLjA1MTgsNzYuODI4MSBRMTg2Mi40MjY4LDc3LjE1NjMgMTg2MS45MjY4LDc3LjkwNjMgUTE4NjEuNDQyNCw3OC42NTYzIDE4NjEuNDQyNCw3OS42ODc1IEwxODYxLjQ0MjQsODAuNzgxMyBRMTg2MS40NDI0LDgyLjAxNTYgMTg2Mi4zMzMsODIuODQzOCBRMTg2My4yMjM2LDgzLjY1NjMgMTg2NC44MTc0LDgzLjY1NjMgUTE4NjUuNzU0OSw4My42NTYzIDE4NjYuNDExMSw4My40MDYzIFExODY2LjgwMTgsODMuMjUgMTg2Ny4yMjM2LDgyLjgxMjUgUTE4NjcuNDg5Myw4Mi41NDY5IDE4NjcuNjI5OSw4Mi40Njg4IFExODY3Ljc4NjEsODIuMzkwNiAxODY3Ljk4OTMsODIuMzkwNiBRMTg2OC4zMTc0LDgyLjM5MDYgMTg2OC41Njc0LDgyLjY1NjMgUTE4NjguODMzLDgyLjkwNjMgMTg2OC44MzMsODMuMjUgUTE4NjguODMzLDgzLjU5MzggMTg2OC40ODkzLDg0IFExODY3Ljk4OTMsODQuNTc4MSAxODY3LjE5MjQsODQuOTA2MyBRMTg2Ni4xMTQzLDg1LjM1OTQgMTg2NC44MTc0LDg1LjM1OTQgUTE4NjMuMzAxOCw4NS4zNTk0IDE4NjIuMDk4Niw4NC43MzQ0IFExODYxLjExNDMsODQuMjM0NCAxODYwLjQyNjgsODMuMTcxOSBRMTg1OS43MzkzLDgyLjA5MzggMTg1OS43MzkzLDgwLjgxMjUgTDE4NTkuNzM5Myw3OS42NTYzIFExODU5LjczOTMsNzguMzI4MSAxODYwLjM0ODYsNzcuMTg3NSBRMTg2MC45NzM2LDc2LjAzMTMgMTg2Mi4wNjc0LDc1LjQyMTkgUTE4NjMuMTYxMSw3NC43OTY5IDE4NjQuMzk1NSw3NC43OTY5IFExODY1LjEyOTksNzQuNzk2OSAxODY1Ljc3MDUsNzQuOTY4OCBRMTg2Ni40MjY4LDc1LjEyNSAxODY2Ljk3MzYsNzUuNDg0NCBaICIgZmlsbD0iIzAwMDAwMCIvPjx0ZXh0IGZpbGw9IiMwMDAwMDAiIGZvbnQtZmFtaWx5PSJzYW5zLXNlcmlmIiBmb250LXNpemU9IjE0IiBsZW5ndGhBZGp1c3Q9InNwYWNpbmciIHRleHRMZW5ndGg9IjEwMS4xNTE0IiB4PSIxODg0LjcwOCIgeT0iODUuMzM3OSI+UGxhblNlcnZpY2VJbXBsPC90ZXh0PjxsaW5lIHN0eWxlPSJzdHJva2U6IzE4MTgxODtzdHJva2Utd2lkdGg6MC41OyIgeDE9IjE3MzciIHgyPSIyMTAxLjA2NzQiIHkxPSI5NS42MDk0IiB5Mj0iOTUuNjA5NCIvPjxsaW5lIHN0eWxlPSJzdHJva2U6IzE4MTgxODtzdHJva2Utd2lkdGg6MC41OyIgeDE9IjE3MzciIHgyPSIyMTAxLjA2NzQiIHkxPSIxMDMuNjA5NCIgeTI9IjEwMy42MDk0Ii8+PGVsbGlwc2UgY3g9IjE3NDciIGN5PSIxMTcuOTE0MSIgZmlsbD0iIzg0QkU4NCIgcng9IjMiIHJ5PSIzIiBzdHlsZT0ic3Ryb2tlOiMwMzgwNDg7c3Ryb2tlLXdpZHRoOjE7Ii8+PHRleHQgZmlsbD0iIzAwMDAwMCIgZm9udC1mYW1pbHk9InNhbnMtc2VyaWYiIGZvbnQtc2l6ZT0iMTQiIGxlbmd0aEFkanVzdD0ic3BhY2luZyIgdGV4dExlbmd0aD0iMjU1LjE5OTIiIHg9IjE3NTYiIHk9IjEyMi4xNDI2Ij5QbGFuRFRPIGNyZWF0ZVBsYW4oUGxhbkRUTyBwbGFuRFRPKTwvdGV4dD48ZWxsaXBzZSBjeD0iMTc0NyIgY3k9IjEzNS41MjM0IiBmaWxsPSIjODRCRTg0IiByeD0iMyIgcnk9IjMiIHN0eWxlPSJzdHJva2U6IzAzODA0ODtzdHJva2Utd2lkdGg6MTsiLz48dGV4dCBmaWxsPSIjMDAwMDAwIiBmb250LWZhbWlseT0ic2Fucy1zZXJpZiIgZm9udC1zaXplPSIxNCIgbGVuZ3RoQWRqdXN0PSJzcGFjaW5nIiB0ZXh0TGVuZ3RoPSIzNDAuMDY3NCIgeD0iMTc1NiIgeT0iMTM5Ljc1MiI+UGxhbkRUTyB1cGRhdGVQbGFuKExvbmcgcGxhbklkLCBQbGFuRFRPIHBsYW5EVE8pPC90ZXh0PjxlbGxpcHNlIGN4PSIxNzQ3IiBjeT0iMTUzLjEzMjgiIGZpbGw9IiM4NEJFODQiIHJ4PSIzIiByeT0iMyIgc3R5bGU9InN0cm9rZTojMDM4MDQ4O3N0cm9rZS13aWR0aDoxOyIvPjx0ZXh0IGZpbGw9IiMwMDAwMDAiIGZvbnQtZmFtaWx5PSJzYW5zLXNlcmlmIiBmb250LXNpemU9IjE0IiBsZW5ndGhBZGp1c3Q9InNwYWNpbmciIHRleHRMZW5ndGg9IjE3OC4yNDAyIiB4PSIxNzU2IiB5PSIxNTcuMzYxMyI+dm9pZCBkZWxldGVQbGFuKExvbmcgcGxhbklkKTwvdGV4dD48ZWxsaXBzZSBjeD0iMTc0NyIgY3k9IjE3MC43NDIyIiBmaWxsPSIjODRCRTg0IiByeD0iMyIgcnk9IjMiIHN0eWxlPSJzdHJva2U6IzAzODA0ODtzdHJva2Utd2lkdGg6MTsiLz48dGV4dCBmaWxsPSIjMDAwMDAwIiBmb250LWZhbWlseT0ic2Fucy1zZXJpZiIgZm9udC1zaXplPSIxNCIgbGVuZ3RoQWRqdXN0PSJzcGFjaW5nIiB0ZXh0TGVuZ3RoPSIxNzguOTY0OCIgeD0iMTc1NiIgeT0iMTc0Ljk3MDciPkxpc3QmbHQ7UGxhbkRUTyZndDsgZ2V0QWxsUGxhbnMoKTwvdGV4dD48L2c+PCEtLWNsYXNzIENhcmRSZXBvc2l0b3J5LS0+PGcgaWQ9ImVsZW1fQ2FyZFJlcG9zaXRvcnkiPjxyZWN0IGNvZGVMaW5lPSI5OCIgZmlsbD0iI0YxRjFGMSIgaGVpZ2h0PSIxMDAuODI4MSIgaWQ9IkNhcmRSZXBvc2l0b3J5IiByeD0iMi41IiByeT0iMi41IiBzdHlsZT0ic3Ryb2tlOiMxODE4MTg7c3Ryb2tlLXdpZHRoOjAuNTsiIHdpZHRoPSIyMzguNDQwNCIgeD0iMTAxMSIgeT0iMjg2LjEwOTQiLz48ZWxsaXBzZSBjeD0iMTA3Ny4zMzk0IiBjeT0iMzAyLjEwOTQiIGZpbGw9IiNBREQxQjIiIHJ4PSIxMSIgcnk9IjExIiBzdHlsZT0ic3Ryb2tlOiMxODE4MTg7c3Ryb2tlLXdpZHRoOjE7Ii8+PHBhdGggZD0iTTEwODAuMTA1LDI5Ny45ODQ0IFExMDgwLjI2MTIsMjk3Ljc2NTYgMTA4MC40NDg3LDI5Ny42NTYzIFExMDgwLjYzNjIsMjk3LjU0NjkgMTA4MC44NTUsMjk3LjU0NjkgUTEwODEuMjMsMjk3LjU0NjkgMTA4MS40NjQ0LDI5Ny44MTI1IFExMDgxLjY5ODcsMjk4LjA2MjUgMTA4MS42OTg3LDI5OC42NzE5IEwxMDgxLjY5ODcsMzAwLjEyNSBRMTA4MS42OTg3LDMwMC43MzQ0IDEwODEuNDY0NCwzMDEgUTEwODEuMjMsMzAxLjI2NTYgMTA4MC44NTUsMzAxLjI2NTYgUTEwODAuNTExMiwzMDEuMjY1NiAxMDgwLjMwODEsMzAxLjA2MjUgUTEwODAuMTA1LDMwMC44NzUgMTA3OS45OTU2LDMwMC4zNTk0IFExMDc5Ljk0ODcsMzAwIDEwNzkuNzYxMiwyOTkuODEyNSBRMTA3OS40MzMxLDI5OS40Mzc1IDEwNzguODIzNywyOTkuMjE4OCBRMTA3OC4yMTQ0LDI5OSAxMDc3LjU4OTQsMjk5IFExMDc2LjgyMzcsMjk5IDEwNzYuMTgzMSwyOTkuMzI4MSBRMTA3NS41NTgxLDI5OS42NTYzIDEwNzUuMDU4MSwzMDAuNDA2MyBRMTA3NC41NzM3LDMwMS4xNTYzIDEwNzQuNTczNywzMDIuMTg3NSBMMTA3NC41NzM3LDMwMy4yODEzIFExMDc0LjU3MzcsMzA0LjUxNTYgMTA3NS40NjQ0LDMwNS4zNDM4IFExMDc2LjM1NSwzMDYuMTU2MyAxMDc3Ljk0ODcsMzA2LjE1NjMgUTEwNzguODg2MiwzMDYuMTU2MyAxMDc5LjU0MjUsMzA1LjkwNjMgUTEwNzkuOTMzMSwzMDUuNzUgMTA4MC4zNTUsMzA1LjMxMjUgUTEwODAuNjIwNiwzMDUuMDQ2OSAxMDgwLjc2MTIsMzA0Ljk2ODggUTEwODAuOTE3NSwzMDQuODkwNiAxMDgxLjEyMDYsMzA0Ljg5MDYgUTEwODEuNDQ4NywzMDQuODkwNiAxMDgxLjY5ODcsMzA1LjE1NjMgUTEwODEuOTY0NCwzMDUuNDA2MyAxMDgxLjk2NDQsMzA1Ljc1IFExMDgxLjk2NDQsMzA2LjA5MzggMTA4MS42MjA2LDMwNi41IFExMDgxLjEyMDYsMzA3LjA3ODEgMTA4MC4zMjM3LDMwNy40MDYzIFExMDc5LjI0NTYsMzA3Ljg1OTQgMTA3Ny45NDg3LDMwNy44NTk0IFExMDc2LjQzMzEsMzA3Ljg1OTQgMTA3NS4yMywzMDcuMjM0NCBRMTA3NC4yNDU2LDMwNi43MzQ0IDEwNzMuNTU4MSwzMDUuNjcxOSBRMTA3Mi44NzA2LDMwNC41OTM4IDEwNzIuODcwNiwzMDMuMzEyNSBMMTA3Mi44NzA2LDMwMi4xNTYzIFExMDcyLjg3MDYsMzAwLjgyODEgMTA3My40OCwyOTkuNjg3NSBRMTA3NC4xMDUsMjk4LjUzMTMgMTA3NS4xOTg3LDI5Ny45MjE5IFExMDc2LjI5MjUsMjk3LjI5NjkgMTA3Ny41MjY5LDI5Ny4yOTY5IFExMDc4LjI2MTIsMjk3LjI5NjkgMTA3OC45MDE5LDI5Ny40Njg4IFExMDc5LjU1ODEsMjk3LjYyNSAxMDgwLjEwNSwyOTcuOTg0NCBaICIgZmlsbD0iIzAwMDAwMCIvPjx0ZXh0IGZpbGw9IiMwMDAwMDAiIGZvbnQtZmFtaWx5PSJzYW5zLXNlcmlmIiBmb250LXNpemU9IjE0IiBsZW5ndGhBZGp1c3Q9InNwYWNpbmciIHRleHRMZW5ndGg9Ijk3LjI2MTciIHg9IjEwOTcuODM5NCIgeT0iMzA3LjgzNzkiPkNhcmRSZXBvc2l0b3J5PC90ZXh0PjxsaW5lIHN0eWxlPSJzdHJva2U6IzE4MTgxODtzdHJva2Utd2lkdGg6MC41OyIgeDE9IjEwMTIiIHgyPSIxMjQ4LjQ0MDQiIHkxPSIzMTguMTA5NCIgeTI9IjMxOC4xMDk0Ii8+PGxpbmUgc3R5bGU9InN0cm9rZTojMTgxODE4O3N0cm9rZS13aWR0aDowLjU7IiB4MT0iMTAxMiIgeDI9IjEyNDguNDQwNCIgeTE9IjMyNi4xMDk0IiB5Mj0iMzI2LjEwOTQiLz48ZWxsaXBzZSBjeD0iMTAyMiIgY3k9IjM0MC40MTQxIiBmaWxsPSIjODRCRTg0IiByeD0iMyIgcnk9IjMiIHN0eWxlPSJzdHJva2U6IzAzODA0ODtzdHJva2Utd2lkdGg6MTsiLz48dGV4dCBmaWxsPSIjMDAwMDAwIiBmb250LWZhbWlseT0ic2Fucy1zZXJpZiIgZm9udC1zaXplPSIxNCIgbGVuZ3RoQWRqdXN0PSJzcGFjaW5nIiB0ZXh0TGVuZ3RoPSIxODUuMjI2NiIgeD0iMTAzMSIgeT0iMzQ0LjY0MjYiPk9wdGlvbmFsJmx0O2MmZ3Q7IGZpbmRCeUlkKExvbmcgaWQpPC90ZXh0PjxlbGxpcHNlIGN4PSIxMDIyIiBjeT0iMzU4LjAyMzQiIGZpbGw9IiM4NEJFODQiIHJ4PSIzIiByeT0iMyIgc3R5bGU9InN0cm9rZTojMDM4MDQ4O3N0cm9rZS13aWR0aDoxOyIvPjx0ZXh0IGZpbGw9IiMwMDAwMDAiIGZvbnQtZmFtaWx5PSJzYW5zLXNlcmlmIiBmb250LXNpemU9IjE0IiBsZW5ndGhBZGp1c3Q9InNwYWNpbmciIHRleHRMZW5ndGg9IjIxMi40NDA0IiB4PSIxMDMxIiB5PSIzNjIuMjUyIj5MaXN0Jmx0O2MmZ3Q7IGZpbmRCeVVzZXJJZChMb25nIHVzZXJJZCk8L3RleHQ+PGVsbGlwc2UgY3g9IjEwMjIiIGN5PSIzNzUuNjMyOCIgZmlsbD0iIzg0QkU4NCIgcng9IjMiIHJ5PSIzIiBzdHlsZT0ic3Ryb2tlOiMwMzgwNDg7c3Ryb2tlLXdpZHRoOjE7Ii8+PHRleHQgZmlsbD0iIzAwMDAwMCIgZm9udC1mYW1pbHk9InNhbnMtc2VyaWYiIGZvbnQtc2l6ZT0iMTQiIGxlbmd0aEFkanVzdD0ic3BhY2luZyIgdGV4dExlbmd0aD0iMTA2LjU5MjgiIHg9IjEwMzEiIHk9IjM3OS44NjEzIj52b2lkIHNhdmUoYyBjYXJkKTwvdGV4dD48L2c+PCEtLWNsYXNzIFBsYW5SZXBvc2l0b3J5LS0+PGcgaWQ9ImVsZW1fUGxhblJlcG9zaXRvcnkiPjxyZWN0IGNvZGVMaW5lPSIxMDUiIGZpbGw9IiNGMUYxRjEiIGhlaWdodD0iMTE4LjQzNzUiIGlkPSJQbGFuUmVwb3NpdG9yeSIgcng9IjIuNSIgcnk9IjIuNSIgc3R5bGU9InN0cm9rZTojMTgxODE4O3N0cm9rZS13aWR0aDowLjU7IiB3aWR0aD0iMjMyLjI0NzEiIHg9IjE5NzAiIHk9IjI3Ny42MDk0Ii8+PGVsbGlwc2UgY3g9IjIwMzQuNDA0OCIgY3k9IjI5My42MDk0IiBmaWxsPSIjQUREMUIyIiByeD0iMTEiIHJ5PSIxMSIgc3R5bGU9InN0cm9rZTojMTgxODE4O3N0cm9rZS13aWR0aDoxOyIvPjxwYXRoIGQ9Ik0yMDM3LjE3MDQsMjg5LjQ4NDQgUTIwMzcuMzI2NywyODkuMjY1NiAyMDM3LjUxNDIsMjg5LjE1NjMgUTIwMzcuNzAxNywyODkuMDQ2OSAyMDM3LjkyMDQsMjg5LjA0NjkgUTIwMzguMjk1NCwyODkuMDQ2OSAyMDM4LjUyOTgsMjg5LjMxMjUgUTIwMzguNzY0MiwyODkuNTYyNSAyMDM4Ljc2NDIsMjkwLjE3MTkgTDIwMzguNzY0MiwyOTEuNjI1IFEyMDM4Ljc2NDIsMjkyLjIzNDQgMjAzOC41Mjk4LDI5Mi41IFEyMDM4LjI5NTQsMjkyLjc2NTYgMjAzNy45MjA0LDI5Mi43NjU2IFEyMDM3LjU3NjcsMjkyLjc2NTYgMjAzNy4zNzM1LDI5Mi41NjI1IFEyMDM3LjE3MDQsMjkyLjM3NSAyMDM3LjA2MSwyOTEuODU5NCBRMjAzNy4wMTQyLDI5MS41IDIwMzYuODI2NywyOTEuMzEyNSBRMjAzNi40OTg1LDI5MC45Mzc1IDIwMzUuODg5MiwyOTAuNzE4OCBRMjAzNS4yNzk4LDI5MC41IDIwMzQuNjU0OCwyOTAuNSBRMjAzMy44ODkyLDI5MC41IDIwMzMuMjQ4NSwyOTAuODI4MSBRMjAzMi42MjM1LDI5MS4xNTYzIDIwMzIuMTIzNSwyOTEuOTA2MyBRMjAzMS42MzkyLDI5Mi42NTYzIDIwMzEuNjM5MiwyOTMuNjg3NSBMMjAzMS42MzkyLDI5NC43ODEzIFEyMDMxLjYzOTIsMjk2LjAxNTYgMjAzMi41Mjk4LDI5Ni44NDM4IFEyMDMzLjQyMDQsMjk3LjY1NjMgMjAzNS4wMTQyLDI5Ny42NTYzIFEyMDM1Ljk1MTcsMjk3LjY1NjMgMjAzNi42MDc5LDI5Ny40MDYzIFEyMDM2Ljk5ODUsMjk3LjI1IDIwMzcuNDIwNCwyOTYuODEyNSBRMjAzNy42ODYsMjk2LjU0NjkgMjAzNy44MjY3LDI5Ni40Njg4IFEyMDM3Ljk4MjksMjk2LjM5MDYgMjAzOC4xODYsMjk2LjM5MDYgUTIwMzguNTE0MiwyOTYuMzkwNiAyMDM4Ljc2NDIsMjk2LjY1NjMgUTIwMzkuMDI5OCwyOTYuOTA2MyAyMDM5LjAyOTgsMjk3LjI1IFEyMDM5LjAyOTgsMjk3LjU5MzggMjAzOC42ODYsMjk4IFEyMDM4LjE4NiwyOTguNTc4MSAyMDM3LjM4OTIsMjk4LjkwNjMgUTIwMzYuMzExLDI5OS4zNTk0IDIwMzUuMDE0MiwyOTkuMzU5NCBRMjAzMy40OTg1LDI5OS4zNTk0IDIwMzIuMjk1NCwyOTguNzM0NCBRMjAzMS4zMTEsMjk4LjIzNDQgMjAzMC42MjM1LDI5Ny4xNzE5IFEyMDI5LjkzNiwyOTYuMDkzOCAyMDI5LjkzNiwyOTQuODEyNSBMMjAyOS45MzYsMjkzLjY1NjMgUTIwMjkuOTM2LDI5Mi4zMjgxIDIwMzAuNTQ1NCwyOTEuMTg3NSBRMjAzMS4xNzA0LDI5MC4wMzEzIDIwMzIuMjY0MiwyODkuNDIxOSBRMjAzMy4zNTc5LDI4OC43OTY5IDIwMzQuNTkyMywyODguNzk2OSBRMjAzNS4zMjY3LDI4OC43OTY5IDIwMzUuOTY3MywyODguOTY4OCBRMjAzNi42MjM1LDI4OS4xMjUgMjAzNy4xNzA0LDI4OS40ODQ0IFogIiBmaWxsPSIjMDAwMDAwIi8+PHRleHQgZmlsbD0iIzAwMDAwMCIgZm9udC1mYW1pbHk9InNhbnMtc2VyaWYiIGZvbnQtc2l6ZT0iMTQiIGxlbmd0aEFkanVzdD0ic3BhY2luZyIgdGV4dExlbmd0aD0iOTQuOTM3NSIgeD0iMjA1NC45MDQ4IiB5PSIyOTkuMzM3OSI+UGxhblJlcG9zaXRvcnk8L3RleHQ+PGxpbmUgc3R5bGU9InN0cm9rZTojMTgxODE4O3N0cm9rZS13aWR0aDowLjU7IiB4MT0iMTk3MSIgeDI9IjIyMDEuMjQ3MSIgeTE9IjMwOS42MDk0IiB5Mj0iMzA5LjYwOTQiLz48bGluZSBzdHlsZT0ic3Ryb2tlOiMxODE4MTg7c3Ryb2tlLXdpZHRoOjAuNTsiIHgxPSIxOTcxIiB4Mj0iMjIwMS4yNDcxIiB5MT0iMzE3LjYwOTQiIHkyPSIzMTcuNjA5NCIvPjxlbGxpcHNlIGN4PSIxOTgxIiBjeT0iMzMxLjkxNDEiIGZpbGw9IiM4NEJFODQiIHJ4PSIzIiByeT0iMyIgc3R5bGU9InN0cm9rZTojMDM4MDQ4O3N0cm9rZS13aWR0aDoxOyIvPjx0ZXh0IGZpbGw9IiMwMDAwMDAiIGZvbnQtZmFtaWx5PSJzYW5zLXNlcmlmIiBmb250LXNpemU9IjE0IiBsZW5ndGhBZGp1c3Q9InNwYWNpbmciIHRleHRMZW5ndGg9IjIwNi4yNDcxIiB4PSIxOTkwIiB5PSIzMzYuMTQyNiI+T3B0aW9uYWwmbHQ7UGxhbiZndDsgZmluZEJ5SWQoTG9uZyBpZCk8L3RleHQ+PGVsbGlwc2UgY3g9IjE5ODEiIGN5PSIzNDkuNTIzNCIgZmlsbD0iIzg0QkU4NCIgcng9IjMiIHJ5PSIzIiBzdHlsZT0ic3Ryb2tlOiMwMzgwNDg7c3Ryb2tlLXdpZHRoOjE7Ii8+PHRleHQgZmlsbD0iIzAwMDAwMCIgZm9udC1mYW1pbHk9InNhbnMtc2VyaWYiIGZvbnQtc2l6ZT0iMTQiIGxlbmd0aEFkanVzdD0ic3BhY2luZyIgdGV4dExlbmd0aD0iMTE3LjUwMjkiIHg9IjE5OTAiIHk9IjM1My43NTIiPkxpc3QmbHQ7UGxhbiZndDsgZmluZEFsbCgpPC90ZXh0PjxlbGxpcHNlIGN4PSIxOTgxIiBjeT0iMzY3LjEzMjgiIGZpbGw9IiM4NEJFODQiIHJ4PSIzIiByeT0iMyIgc3R5bGU9InN0cm9rZTojMDM4MDQ4O3N0cm9rZS13aWR0aDoxOyIvPjx0ZXh0IGZpbGw9IiMwMDAwMDAiIGZvbnQtZmFtaWx5PSJzYW5zLXNlcmlmIiBmb250LXNpemU9IjE0IiBsZW5ndGhBZGp1c3Q9InNwYWNpbmciIHRleHRMZW5ndGg9IjEyNi44NDc3IiB4PSIxOTkwIiB5PSIzNzEuMzYxMyI+dm9pZCBzYXZlKFBsYW4gcGxhbik8L3RleHQ+PGVsbGlwc2UgY3g9IjE5ODEiIGN5PSIzODQuNzQyMiIgZmlsbD0iIzg0QkU4NCIgcng9IjMiIHJ5PSIzIiBzdHlsZT0ic3Ryb2tlOiMwMzgwNDg7c3Ryb2tlLXdpZHRoOjE7Ii8+PHRleHQgZmlsbD0iIzAwMDAwMCIgZm9udC1mYW1pbHk9InNhbnMtc2VyaWYiIGZvbnQtc2l6ZT0iMTQiIGxlbmd0aEFkanVzdD0ic3BhY2luZyIgdGV4dExlbmd0aD0iMTUwLjk4NTQiIHg9IjE5OTAiIHk9IjM4OC45NzA3Ij52b2lkIGRlbGV0ZUJ5SWQoTG9uZyBpZCk8L3RleHQ+PC9nPjwhLS1jbGFzcyBVc2VyRmVpZ25DbGllbnQtLT48ZyBpZD0iZWxlbV9Vc2VyRmVpZ25DbGllbnQiPjxyZWN0IGNvZGVMaW5lPSIxMTMiIGZpbGw9IiNGMUYxRjEiIGhlaWdodD0iNjUuNjA5NCIgaWQ9IlVzZXJGZWlnbkNsaWVudCIgcng9IjIuNSIgcnk9IjIuNSIgc3R5bGU9InN0cm9rZTojMTgxODE4O3N0cm9rZS13aWR0aDowLjU7IiB3aWR0aD0iMjQ5LjMwMjciIHg9IjEyODQuNSIgeT0iMzAzLjYwOTQiLz48ZWxsaXBzZSBjeD0iMTM1NC43MTUzIiBjeT0iMzE5LjYwOTQiIGZpbGw9IiNBREQxQjIiIHJ4PSIxMSIgcnk9IjExIiBzdHlsZT0ic3Ryb2tlOiMxODE4MTg7c3Ryb2tlLXdpZHRoOjE7Ii8+PHBhdGggZD0iTTEzNTcuNDgxLDMxNS40ODQ0IFExMzU3LjYzNzIsMzE1LjI2NTYgMTM1Ny44MjQ3LDMxNS4xNTYzIFExMzU4LjAxMjIsMzE1LjA0NjkgMTM1OC4yMzEsMzE1LjA0NjkgUTEzNTguNjA2LDMxNS4wNDY5IDEzNTguODQwMywzMTUuMzEyNSBRMTM1OS4wNzQ3LDMxNS41NjI1IDEzNTkuMDc0NywzMTYuMTcxOSBMMTM1OS4wNzQ3LDMxNy42MjUgUTEzNTkuMDc0NywzMTguMjM0NCAxMzU4Ljg0MDMsMzE4LjUgUTEzNTguNjA2LDMxOC43NjU2IDEzNTguMjMxLDMxOC43NjU2IFExMzU3Ljg4NzIsMzE4Ljc2NTYgMTM1Ny42ODQxLDMxOC41NjI1IFExMzU3LjQ4MSwzMTguMzc1IDEzNTcuMzcxNiwzMTcuODU5NCBRMTM1Ny4zMjQ3LDMxNy41IDEzNTcuMTM3MiwzMTcuMzEyNSBRMTM1Ni44MDkxLDMxNi45Mzc1IDEzNTYuMTk5NywzMTYuNzE4OCBRMTM1NS41OTAzLDMxNi41IDEzNTQuOTY1MywzMTYuNSBRMTM1NC4xOTk3LDMxNi41IDEzNTMuNTU5MSwzMTYuODI4MSBRMTM1Mi45MzQxLDMxNy4xNTYzIDEzNTIuNDM0MSwzMTcuOTA2MyBRMTM1MS45NDk3LDMxOC42NTYzIDEzNTEuOTQ5NywzMTkuNjg3NSBMMTM1MS45NDk3LDMyMC43ODEzIFExMzUxLjk0OTcsMzIyLjAxNTYgMTM1Mi44NDAzLDMyMi44NDM4IFExMzUzLjczMSwzMjMuNjU2MyAxMzU1LjMyNDcsMzIzLjY1NjMgUTEzNTYuMjYyMiwzMjMuNjU2MyAxMzU2LjkxODUsMzIzLjQwNjMgUTEzNTcuMzA5MSwzMjMuMjUgMTM1Ny43MzEsMzIyLjgxMjUgUTEzNTcuOTk2NiwzMjIuNTQ2OSAxMzU4LjEzNzIsMzIyLjQ2ODggUTEzNTguMjkzNSwzMjIuMzkwNiAxMzU4LjQ5NjYsMzIyLjM5MDYgUTEzNTguODI0NywzMjIuMzkwNiAxMzU5LjA3NDcsMzIyLjY1NjMgUTEzNTkuMzQwMywzMjIuOTA2MyAxMzU5LjM0MDMsMzIzLjI1IFExMzU5LjM0MDMsMzIzLjU5MzggMTM1OC45OTY2LDMyNCBRMTM1OC40OTY2LDMyNC41NzgxIDEzNTcuNjk5NywzMjQuOTA2MyBRMTM1Ni42MjE2LDMyNS4zNTk0IDEzNTUuMzI0NywzMjUuMzU5NCBRMTM1My44MDkxLDMyNS4zNTk0IDEzNTIuNjA2LDMyNC43MzQ0IFExMzUxLjYyMTYsMzI0LjIzNDQgMTM1MC45MzQxLDMyMy4xNzE5IFExMzUwLjI0NjYsMzIyLjA5MzggMTM1MC4yNDY2LDMyMC44MTI1IEwxMzUwLjI0NjYsMzE5LjY1NjMgUTEzNTAuMjQ2NiwzMTguMzI4MSAxMzUwLjg1NiwzMTcuMTg3NSBRMTM1MS40ODEsMzE2LjAzMTMgMTM1Mi41NzQ3LDMxNS40MjE5IFExMzUzLjY2ODUsMzE0Ljc5NjkgMTM1NC45MDI4LDMxNC43OTY5IFExMzU1LjYzNzIsMzE0Ljc5NjkgMTM1Ni4yNzc4LDMxNC45Njg4IFExMzU2LjkzNDEsMzE1LjEyNSAxMzU3LjQ4MSwzMTUuNDg0NCBaICIgZmlsbD0iIzAwMDAwMCIvPjx0ZXh0IGZpbGw9IiMwMDAwMDAiIGZvbnQtZmFtaWx5PSJzYW5zLXNlcmlmIiBmb250LXNpemU9IjE0IiBsZW5ndGhBZGp1c3Q9InNwYWNpbmciIHRleHRMZW5ndGg9IjEwMC4zNzIxIiB4PSIxMzc1LjIxNTMiIHk9IjMyNS4zMzc5Ij5Vc2VyRmVpZ25DbGllbnQ8L3RleHQ+PGxpbmUgc3R5bGU9InN0cm9rZTojMTgxODE4O3N0cm9rZS13aWR0aDowLjU7IiB4MT0iMTI4NS41IiB4Mj0iMTUzMi44MDI3IiB5MT0iMzM1LjYwOTQiIHkyPSIzMzUuNjA5NCIvPjxsaW5lIHN0eWxlPSJzdHJva2U6IzE4MTgxODtzdHJva2Utd2lkdGg6MC41OyIgeDE9IjEyODUuNSIgeDI9IjE1MzIuODAyNyIgeTE9IjM0My42MDk0IiB5Mj0iMzQzLjYwOTQiLz48ZWxsaXBzZSBjeD0iMTI5NS41IiBjeT0iMzU3LjkxNDEiIGZpbGw9IiM4NEJFODQiIHJ4PSIzIiByeT0iMyIgc3R5bGU9InN0cm9rZTojMDM4MDQ4O3N0cm9rZS13aWR0aDoxOyIvPjx0ZXh0IGZpbGw9IiMwMDAwMDAiIGZvbnQtZmFtaWx5PSJzYW5zLXNlcmlmIiBmb250LXNpemU9IjE0IiBsZW5ndGhBZGp1c3Q9InNwYWNpbmciIHRleHRMZW5ndGg9IjIyMy4zMDI3IiB4PSIxMzA0LjUiIHk9IjM2Mi4xNDI2Ij5Vc2VyRFRPIGdldFVzZXJCeUlkKExvbmcgdXNlcklkKTwvdGV4dD48L2c+PCEtLWxpbmsgQ2FyZFNlcnZpY2VJbXBsIHRvIElDYXJkU2VydmljZS0tPjxnIGlkPSJsaW5rX0NhcmRTZXJ2aWNlSW1wbF9JQ2FyZFNlcnZpY2UiPjxwYXRoIGNvZGVMaW5lPSIxMTgiIGQ9Ik0xMDQxLjU5LDE4MS44MTk0IEM5OTYuMzQsMjExLjYwOTQgOTU2LjQ2MzQsMjM3Ljg2MDEgOTExLjI1MzQsMjY3LjYzMDEgIiBmaWxsPSJ0cmFuc3BhcmVudCIgaWQ9IkNhcmRTZXJ2aWNlSW1wbC10by1JQ2FyZFNlcnZpY2UiIHN0eWxlPSJzdHJva2U6IzE4MTgxODtzdHJva2Utd2lkdGg6MTtzdHJva2UtZGFzaGFycmF5OjcuMCw3LjA7Ii8+PHBvbHlnb24gZmlsbD0idHJhbnNwYXJlbnQiIHBvaW50cz0iODk2LjIyLDI3Ny41Mjk0LDkxNC41NTMyLDI3Mi42NDEzLDkwNy45NTM3LDI2Mi42MTksODk2LjIyLDI3Ny41Mjk0IiBzdHlsZT0ic3Ryb2tlOiMxODE4MTg7c3Ryb2tlLXdpZHRoOjE7Ii8+PC9nPjwhLS1saW5rIENhcmRTZXJ2aWNlSW1wbCB0byBDYXJkUmVwb3NpdG9yeS0tPjxnIGlkPSJsaW5rX0NhcmRTZXJ2aWNlSW1wbF9DYXJkUmVwb3NpdG9yeSI+PHBhdGggY29kZUxpbmU9IjExOSIgZD0iTTExMzAsMTgxLjgxOTQgQzExMzAsMjE0LjQyOTQgMTEzMCwyNDguNjU5NCAxMTMwLDI3OS43OTk0ICIgZmlsbD0idHJhbnNwYXJlbnQiIGlkPSJDYXJkU2VydmljZUltcGwtdG8tQ2FyZFJlcG9zaXRvcnkiIHN0eWxlPSJzdHJva2U6IzE4MTgxODtzdHJva2Utd2lkdGg6MTtzdHJva2UtZGFzaGFycmF5OjcuMCw3LjA7Ii8+PHBvbHlnb24gZmlsbD0iIzE4MTgxOCIgcG9pbnRzPSIxMTMwLDI4NS43OTk0LDExMzQsMjc2Ljc5OTQsMTEzMCwyODAuNzk5NCwxMTI2LDI3Ni43OTk0LDExMzAsMjg1Ljc5OTQiIHN0eWxlPSJzdHJva2U6IzE4MTgxODtzdHJva2Utd2lkdGg6MTsiLz48dGV4dCBmaWxsPSIjMDAwMDAwIiBmb250LWZhbWlseT0ic2Fucy1zZXJpZiIgZm9udC1zaXplPSIxMyIgbGVuZ3RoQWRqdXN0PSJzcGFjaW5nIiB0ZXh0TGVuZ3RoPSIzNS4zOTQ1IiB4PSIxMTMxIiB5PSIyNDQuMTA0NSI+VXRpbGlzZTwvdGV4dD48L2c+PCEtLWxpbmsgQ2FyZFNlcnZpY2VJbXBsIHRvIFVzZXJGZWlnbkNsaWVudC0tPjxnIGlkPSJsaW5rX0NhcmRTZXJ2aWNlSW1wbF9Vc2VyRmVpZ25DbGllbnQiPjxwYXRoIGNvZGVMaW5lPSIxMjAiIGQ9Ik0xMjA2LjYxLDE4MS44MTk0IEMxMjU4LjIzLDIyMS4wNDk0IDEzMTkuNjAyOCwyNjcuNjc5MSAxMzYxLjk2MjgsMjk5Ljg2OTEgIiBmaWxsPSJ0cmFuc3BhcmVudCIgaWQ9IkNhcmRTZXJ2aWNlSW1wbC10by1Vc2VyRmVpZ25DbGllbnQiIHN0eWxlPSJzdHJva2U6IzE4MTgxODtzdHJva2Utd2lkdGg6MTtzdHJva2UtZGFzaGFycmF5OjcuMCw3LjA7Ii8+PHBvbHlnb24gZmlsbD0iIzE4MTgxOCIgcG9pbnRzPSIxMzY2Ljc0LDMwMy40OTk0LDEzNjEuOTk0NCwyOTQuODY5MiwxMzYyLjc1OSwzMDAuNDc0MiwxMzU3LjE1NDEsMzAxLjIzODgsMTM2Ni43NCwzMDMuNDk5NCIgc3R5bGU9InN0cm9rZTojMTgxODE4O3N0cm9rZS13aWR0aDoxOyIvPjx0ZXh0IGZpbGw9IiMwMDAwMDAiIGZvbnQtZmFtaWx5PSJzYW5zLXNlcmlmIiBmb250LXNpemU9IjEzIiBsZW5ndGhBZGp1c3Q9InNwYWNpbmciIHRleHRMZW5ndGg9IjIwNS4yMTM0IiB4PSIxMjg4IiB5PSIyNDQuMTA0NSI+UiYjMjMzO2N1cCYjMjMyO3JlIHV0aWxpc2F0ZXVyIHZpYSBGZWlnbkNsaWVudDwvdGV4dD48L2c+PCEtLWxpbmsgQ2FyZERUTyB0byBDYXJkTWFwcGVyLS0+PGcgaWQ9ImxpbmtfQ2FyZERUT19DYXJkTWFwcGVyIj48cGF0aCBjb2RlTGluZT0iMTIxIiBkPSJNNTA2LDE5OS44NDk0IEM1MDYsMjMyLjAxOTQgNTA2LDI2Mi4xNjk0IDUwNiwyODkuMDY5NCAiIGZpbGw9InRyYW5zcGFyZW50IiBpZD0iQ2FyZERUTy10by1DYXJkTWFwcGVyIiBzdHlsZT0ic3Ryb2tlOiMxODE4MTg7c3Ryb2tlLXdpZHRoOjE7c3Ryb2tlLWRhc2hhcnJheTo3LjAsNy4wOyIvPjxwb2x5Z29uIGZpbGw9IiMxODE4MTgiIHBvaW50cz0iNTA2LDI5NS4wNjk0LDUxMCwyODYuMDY5NCw1MDYsMjkwLjA2OTQsNTAyLDI4Ni4wNjk0LDUwNiwyOTUuMDY5NCIgc3R5bGU9InN0cm9rZTojMTgxODE4O3N0cm9rZS13aWR0aDoxOyIvPjx0ZXh0IGZpbGw9IiMwMDAwMDAiIGZvbnQtZmFtaWx5PSJzYW5zLXNlcmlmIiBmb250LXNpemU9IjEzIiBsZW5ndGhBZGp1c3Q9InNwYWNpbmciIHRleHRMZW5ndGg9IjY2LjQ3OSIgeD0iNTA3IiB5PSIyNDQuMTA0NSI+Q29udmVydGkgZW48L3RleHQ+PC9nPjwhLS1saW5rIENhcmRNYXBwZXIgdG8gYy0tPjxnIGlkPSJsaW5rX0NhcmRNYXBwZXJfYyI+PHBhdGggY29kZUxpbmU9IjEyMiIgZD0iTTQ5NC45MiwzNzguMTc5NCBDNDg4LjQsMzk4LjYwOTQgNDc5LjA1LDQyMy4yODk0IDQ2Nyw0NDMuNjA5NCBDNDU5LjgsNDU1Ljc1OTQgNDU0Ljk1LDQ2My4xMTM5IDQ0NS45MSw0NzQuNjAzOSAiIGZpbGw9InRyYW5zcGFyZW50IiBpZD0iQ2FyZE1hcHBlci10by1jIiBzdHlsZT0ic3Ryb2tlOiMxODE4MTg7c3Ryb2tlLXdpZHRoOjE7c3Ryb2tlLWRhc2hhcnJheTo3LjAsNy4wOyIvPjxwb2x5Z29uIGZpbGw9IiMxODE4MTgiIHBvaW50cz0iNDQyLjIsNDc5LjMxOTQsNDUwLjkwODcsNDc0LjcxOTUsNDQ1LjI5MTcsNDc1LjM4OTgsNDQ0LjYyMTQsNDY5Ljc3MjgsNDQyLjIsNDc5LjMxOTQiIHN0eWxlPSJzdHJva2U6IzE4MTgxODtzdHJva2Utd2lkdGg6MTsiLz48dGV4dCBmaWxsPSIjMDAwMDAwIiBmb250LWZhbWlseT0ic2Fucy1zZXJpZiIgZm9udC1zaXplPSIxMyIgbGVuZ3RoQWRqdXN0PSJzcGFjaW5nIiB0ZXh0TGVuZ3RoPSIxMjMuNTgyNSIgeD0iNDc3IiB5PSI0NDAuMTA0NSI+Q3ImIzIzMztlIHVuZSBpbnN0YW5jZSBkZTwvdGV4dD48L2c+PCEtLWxpbmsgUGxhblNlcnZpY2VJbXBsIHRvIElQbGFuU2VydmljZS0tPjxnIGlkPSJsaW5rX1BsYW5TZXJ2aWNlSW1wbF9JUGxhblNlcnZpY2UiPjxwYXRoIGNvZGVMaW5lPSIxMjQiIGQ9Ik0xODczLjE1LDE4MS44MTk0IEMxODQ5LjY4LDIxMS42MDk0IDE4MzIuMzM4MiwyMzMuNjE5MyAxODA4Ljg4ODIsMjYzLjM4OTMgIiBmaWxsPSJ0cmFuc3BhcmVudCIgaWQ9IlBsYW5TZXJ2aWNlSW1wbC10by1JUGxhblNlcnZpY2UiIHN0eWxlPSJzdHJva2U6IzE4MTgxODtzdHJva2Utd2lkdGg6MTtzdHJva2UtZGFzaGFycmF5OjcuMCw3LjA7Ii8+PHBvbHlnb24gZmlsbD0idHJhbnNwYXJlbnQiIHBvaW50cz0iMTc5Ny43NSwyNzcuNTI5NCwxODEzLjYwMTUsMjY3LjEwMjEsMTgwNC4xNzQ4LDI1OS42NzY2LDE3OTcuNzUsMjc3LjUyOTQiIHN0eWxlPSJzdHJva2U6IzE4MTgxODtzdHJva2Utd2lkdGg6MTsiLz48L2c+PCEtLWxpbmsgUGxhblNlcnZpY2VJbXBsIHRvIFBsYW5SZXBvc2l0b3J5LS0+PGcgaWQ9ImxpbmtfUGxhblNlcnZpY2VJbXBsX1BsYW5SZXBvc2l0b3J5Ij48cGF0aCBjb2RlTGluZT0iMTI1IiBkPSJNMTk2NC44NSwxODEuODE5NCBDMTk4OC4zMiwyMTEuNjA5NCAyMDEzLjA4NzMsMjQzLjA0NiAyMDM2LjUzNzMsMjcyLjgxNiAiIGZpbGw9InRyYW5zcGFyZW50IiBpZD0iUGxhblNlcnZpY2VJbXBsLXRvLVBsYW5SZXBvc2l0b3J5IiBzdHlsZT0ic3Ryb2tlOiMxODE4MTg7c3Ryb2tlLXdpZHRoOjE7c3Ryb2tlLWRhc2hhcnJheTo3LjAsNy4wOyIvPjxwb2x5Z29uIGZpbGw9IiMxODE4MTgiIHBvaW50cz0iMjA0MC4yNSwyNzcuNTI5NCwyMDM3LjgyMzEsMjY3Ljk4NDIsMjAzNy4xNTYxLDI3My42MDE2LDIwMzEuNTM4NywyNzIuOTM0NSwyMDQwLjI1LDI3Ny41Mjk0IiBzdHlsZT0ic3Ryb2tlOiMxODE4MTg7c3Ryb2tlLXdpZHRoOjE7Ii8+PHRleHQgZmlsbD0iIzAwMDAwMCIgZm9udC1mYW1pbHk9InNhbnMtc2VyaWYiIGZvbnQtc2l6ZT0iMTMiIGxlbmd0aEFkanVzdD0ic3BhY2luZyIgdGV4dExlbmd0aD0iMzUuMzk0NSIgeD0iMjAxNCIgeT0iMjQ0LjEwNDUiPlV0aWxpc2U8L3RleHQ+PC9nPjwhLS1saW5rIFBsYW5EVE8gdG8gUGxhbk1hcHBlci0tPjxnIGlkPSJsaW5rX1BsYW5EVE9fUGxhbk1hcHBlciI+PHBhdGggY29kZUxpbmU9IjEyNiIgZD0iTTExNCwzODcuMzY5NCBDMTE0LDQyNi42MTk0IDExNCw0NzQuNjc5NCAxMTQsNTExLjM3OTQgIiBmaWxsPSJ0cmFuc3BhcmVudCIgaWQ9IlBsYW5EVE8tdG8tUGxhbk1hcHBlciIgc3R5bGU9InN0cm9rZTojMTgxODE4O3N0cm9rZS13aWR0aDoxO3N0cm9rZS1kYXNoYXJyYXk6Ny4wLDcuMDsiLz48cG9seWdvbiBmaWxsPSIjMTgxODE4IiBwb2ludHM9IjExNCw1MTcuMzc5NCwxMTgsNTA4LjM3OTQsMTE0LDUxMi4zNzk0LDExMCw1MDguMzc5NCwxMTQsNTE3LjM3OTQiIHN0eWxlPSJzdHJva2U6IzE4MTgxODtzdHJva2Utd2lkdGg6MTsiLz48dGV4dCBmaWxsPSIjMDAwMDAwIiBmb250LWZhbWlseT0ic2Fucy1zZXJpZiIgZm9udC1zaXplPSIxMyIgbGVuZ3RoQWRqdXN0PSJzcGFjaW5nIiB0ZXh0TGVuZ3RoPSI2Ni40NzkiIHg9IjExNSIgeT0iNDQwLjEwNDUiPkNvbnZlcnRpIGVuPC90ZXh0PjwvZz48IS0tbGluayBQbGFuTWFwcGVyIHRvIFBsYW4tLT48ZyBpZD0ibGlua19QbGFuTWFwcGVyX1BsYW4iPjxwYXRoIGNvZGVMaW5lPSIxMjciIGQ9Ik0xMTMuNDYsNjAwLjc2OTQgQzExNC44Myw2MjguNDY5NCAxMjAuMTksNjY0Ljk4OTQgMTM3LDY5Mi42MDk0IEMxNDMuNTcsNzAzLjQwOTQgMTQ3LjY4NjEsNzA5LjE2OTIgMTU2Ljk5NjEsNzE4LjE2OTIgIiBmaWxsPSJ0cmFuc3BhcmVudCIgaWQ9IlBsYW5NYXBwZXItdG8tUGxhbiIgc3R5bGU9InN0cm9rZTojMTgxODE4O3N0cm9rZS13aWR0aDoxO3N0cm9rZS1kYXNoYXJyYXk6Ny4wLDcuMDsiLz48cG9seWdvbiBmaWxsPSIjMTgxODE4IiBwb2ludHM9IjE2MS4zMSw3MjIuMzM5NCwxNTcuNjE5NCw3MTMuMjA4MiwxNTcuNzE1MSw3MTguODY0MiwxNTIuMDU5MSw3MTguOTYsMTYxLjMxLDcyMi4zMzk0IiBzdHlsZT0ic3Ryb2tlOiMxODE4MTg7c3Ryb2tlLXdpZHRoOjE7Ii8+PHRleHQgZmlsbD0iIzAwMDAwMCIgZm9udC1mYW1pbHk9InNhbnMtc2VyaWYiIGZvbnQtc2l6ZT0iMTMiIGxlbmd0aEFkanVzdD0ic3BhY2luZyIgdGV4dExlbmd0aD0iMTIzLjU4MjUiIHg9IjEzOCIgeT0iNjg5LjEwNDUiPkNyJiMyMzM7ZSB1bmUgaW5zdGFuY2UgZGU8L3RleHQ+PC9nPjwhLS1saW5rIGMgdG8gUGxhbi0tPjxnIGlkPSJsaW5rX2NfUGxhbiI+PHBhdGggY29kZUxpbmU9IjEyOSIgZD0iTTI5Mi45OSw2NDQuODQ5NCBDMjg2LjYxLDY1NC41MDk0IDI4MC43OSw2NjQuNTA5NCAyNzYsNjc0LjYwOTQgQzI2OC45OCw2ODkuNDA5NCAyNjUuMzM2NCw3MDAuNTMyNCAyNjEuOTE2NCw3MTYuNTAyNCAiIGZpbGw9InRyYW5zcGFyZW50IiBpZD0iYy10by1QbGFuIiBzdHlsZT0ic3Ryb2tlOiMxODE4MTg7c3Ryb2tlLXdpZHRoOjE7Ii8+PHBvbHlnb24gZmlsbD0iIzE4MTgxOCIgcG9pbnRzPSIyNjAuNjYsNzIyLjM2OTQsMjY2LjQ1NTksNzE0LjQwNjUsMjYxLjcwNyw3MTcuNDgwMiwyNTguNjMzMyw3MTIuNzMxMywyNjAuNjYsNzIyLjM2OTQiIHN0eWxlPSJzdHJva2U6IzE4MTgxODtzdHJva2Utd2lkdGg6MTsiLz48dGV4dCBmaWxsPSIjMDAwMDAwIiBmb250LWZhbWlseT0ic2Fucy1zZXJpZiIgZm9udC1zaXplPSIxMyIgbGVuZ3RoQWRqdXN0PSJzcGFjaW5nIiB0ZXh0TGVuZ3RoPSIxMDkuODM5OCIgeD0iMjc3IiB5PSI2ODkuMTA0NSI+QXR0cmlidSYjMjMzOyAmIzIyNDsgdW4gZm9yZmFpdDwvdGV4dD48dGV4dCBmaWxsPSIjMDAwMDAwIiBmb250LWZhbWlseT0ic2Fucy1zZXJpZiIgZm9udC1zaXplPSIxMyIgbGVuZ3RoQWRqdXN0PSJzcGFjaW5nIiB0ZXh0TGVuZ3RoPSI3LjIzIiB4PSIyNzkuMzUwMiIgeT0iNjY2LjQwNCI+MTwvdGV4dD48dGV4dCBmaWxsPSIjMDAwMDAwIiBmb250LWZhbWlseT0ic2Fucy1zZXJpZiIgZm9udC1zaXplPSIxMyIgbGVuZ3RoQWRqdXN0PSJzcGFjaW5nIiB0ZXh0TGVuZ3RoPSI3LjIzIiB4PSIyNTQuMTYxMyIgeT0iNzExLjY2NDQiPjE8L3RleHQ+PC9nPjwhLS1saW5rIGMgdG8gRGF0ZUF1ZGl0LS0+PGcgaWQ9ImxpbmtfY19EYXRlQXVkaXQiPjxwYXRoIGNvZGVMaW5lPSIxMzIiIGQ9Ik0zODYuNzksNjQ0LjgzOTQgQzM4OC41Miw2NTQuODI5NCAzODkuOTksNjY0LjkwOTQgMzkxLDY3NC42MDk0IEMzOTYuNDksNzI3LjU5OTQgNDAyLjk1LDczOS42Njk0IDM3Nyw4NDAuNjA5NCBDMzcxLjY5LDg2MS4yNTk0IDM3MC4zMzE4LDg2Ni43NzI3IDM2MS44NzE4LDg4NC44NzI3ICIgZmlsbD0idHJhbnNwYXJlbnQiIGlkPSJjLXRvLURhdGVBdWRpdCIgc3R5bGU9InN0cm9rZTojMTgxODE4O3N0cm9rZS13aWR0aDoxOyIvPjxwb2x5Z29uIGZpbGw9InRyYW5zcGFyZW50IiBwb2ludHM9IjM1NC4yNSw5MDEuMTc5NCwzNjcuMzA3NCw4ODcuNDEzMywzNTYuNDM2Miw4ODIuMzMyMSwzNTQuMjUsOTAxLjE3OTQiIHN0eWxlPSJzdHJva2U6IzE4MTgxODtzdHJva2Utd2lkdGg6MTsiLz48L2c+PCEtLWxpbmsgUGxhbiB0byBEYXRlQXVkaXQtLT48ZyBpZD0ibGlua19QbGFuX0RhdGVBdWRpdCI+PHBhdGggY29kZUxpbmU9IjEzMyIgZD0iTTI4Mi4xMSw4NDAuNjM5NCBDMjkyLjIsODYwLjc2OTQgMjk1LjIyOTIsODY2LjgxMDIgMzA0LjQ3OTIsODg1LjI1MDIgIiBmaWxsPSJ0cmFuc3BhcmVudCIgaWQ9IlBsYW4tdG8tRGF0ZUF1ZGl0IiBzdHlsZT0ic3Ryb2tlOiMxODE4MTg7c3Ryb2tlLXdpZHRoOjE7Ii8+PHBvbHlnb24gZmlsbD0idHJhbnNwYXJlbnQiIHBvaW50cz0iMzEyLjU1LDkwMS4zMzk0LDMwOS44NDIzLDg4Mi41NTk5LDI5OS4xMTYyLDg4Ny45NDA0LDMxMi41NSw5MDEuMzM5NCIgc3R5bGU9InN0cm9rZTojMTgxODE4O3N0cm9rZS13aWR0aDoxOyIvPjwvZz48IS0tbGluayBDYXJkU3RhdHVzIHRvIGMtLT48ZyBpZD0ibGlua19DYXJkU3RhdHVzX2MiPjxwYXRoIGNvZGVMaW5lPSIxMzYiIGQ9Ik0zMDcuNDIsMzg3LjIwOTQgQzMwNi4zOSw0MDUuMTY5NCAzMDYuODEsNDI1LjQ4OTQgMzExLDQ0My42MDk0IEMzMTMuMyw0NTMuNTI5NCAzMTYuNTcsNDYzLjU3OTQgMzIwLjQxLDQ3My4zODk0ICIgZmlsbD0idHJhbnNwYXJlbnQiIGlkPSJDYXJkU3RhdHVzLWMiIHN0eWxlPSJzdHJva2U6IzE4MTgxODtzdHJva2Utd2lkdGg6MTsiLz48dGV4dCBmaWxsPSIjMDAwMDAwIiBmb250LWZhbWlseT0ic2Fucy1zZXJpZiIgZm9udC1zaXplPSIxMyIgbGVuZ3RoQWRqdXN0PSJzcGFjaW5nIiB0ZXh0TGVuZ3RoPSIxNTAuMjk5OCIgeD0iMzEyIiB5PSI0NDAuMTA0NSI+RCYjMjMzO2Zpbml0IGxlIHN0YXR1dCBkZSBsYSBjYXJ0ZTwvdGV4dD48L2c+PCEtLVNSQz1bckxSMVJYaXQ0QnRsTG1ucWFPOTYwTmVqMFc2QXZROTJ4SlltdXptZkJncUl0SU10OTVVOHVGUFZVZW8tT3QtaUNxRmtCaHNIN0hKOGVScmVITjh1VkVfRGEzRHBzN0lkMXNycXFEUDBnSm1lNHRKZUpYdVFmdXRLWlFZS0JtZ1NnbkhTMjVWMmROODdCSEtpT1FGNXRlY3dMZDFfVkxLS1N4WWVYRlNBb2hiZUlucld0dnJDVHRCd1pyT0xPa1UzNHBBMDkxbE9ZQTNNUkZITzBGbjBHdjFFdVFUU1hzNmNSU2VxeW5Vdmx1cEdtQWQ2OEs5NEFhbzByazFNdVQzeWU1cmVMTE1mV2FhU09LUTBQbzB5STN4Y29mZXp3N0J1c3RoYmpab3kyeVhzSnR4QXpzc3pLdXVuczdRN2g3VVk0YU9nY1k1X1RxNjRyZUZkM3FyLW02TGV5NlYwaEp1dHNXY0liOE80TmZjc1hjbXRtTGJWVkRuLWtpR19zX1YzdHpsQkpwVV9OY3ZVdldpRnJacTg3TmdRMzYxQUMzNG9lYk9QYnpnUXk1anJORFVzRFFwcHJXSXJMbXVFZWo4T1prQzd2Ukdqai1RUTM3dDRpVmJ1MHN0R2JWTzhmaDZqV3FmV2pCZ0pJNWFKekl6WVE4YWJ4Tlp5cFpBcEF2OHZrZGY2dzZWR3hmS1ZDWm9mdm5EVUtjXzAtbnJMa25QRFdvUUNHNWZwSzJ2ZUh6NlptdkpmZXZrZmJkT3l6WDkwaTZucU5GSVFiaTYtd2JUZjdFbWNNNXZiSkxfSG9JRWh0MV9kb0UybHZ6cHh3eVZIN3ppRV9rUDBSNTRvbEZDT1FmLWtGX0VZYW1pekI2eXZTQ2RXQ0dTUXhwUUQxWXVvVmxkeVd6S2JmbGQxX1h2akVEUGFpMnJ2X0toeHkzUGpONjRtbXB0MmVCNVZQMWFza2VlRm54a09LUmN0cnYxMkFaWU10b0g4S2tHNFFWbzRPQXpTOTRZWkdUbWNWZnk4Nzg2bk1QUkZoLTdTN2NQSWdhZnpsTTRLOU1yYUtUUExIS0VfdzZkTEpUTVRRZGV0T2xBdFB3OHRmYl9ZSFJsLUx5N3gxYWlFdU5XZmxjQnZOdXhXaE1naXJ5NndPdGg5dmFCQXhlaTdxTnc2cVhlaWhfWVdkR2pjamZEUHRaR2FaZ1pVb1hMV2xJX1Y3UlNmS1poM0NZcFVTcXBFbnlVQldyaDhfODd1NXAwZHFOV005WXMtWDdIU0h5cU00dDEzSFB2NnVRYWxubHdwcWRrM2RPbDYxMWdCY3d0aHJjV1BDbWZUSWN2Z1dhQ1FBUmR3eWE1QWlPX2FXY2RHOTJMM0lsUm5zNXhCOTVsNTF0M0p2SEhXZm5OUjh0Ry1sUDFsdGxvdlVsQS1kaDVPSklGXzR5cGtrSEFnc0xkcEFOUXFsLXJFaWNzd0JtV2Q1YjVDVGpKYWUwTGFiajRUQ1VuRkpSSzZGTG9hTWVVYWViYlE4YWw5MWpXdkE2eFJqQzdvUmxaUGRITjV6N1A2b2pkaTZPbExEOGpvb2xzTHhDc1VtUFdqelBPbG1QR20tdDQ2by1NQWx4dHJFYzNkaTZrbnZVWi1wYmdxNlNOdjVzZzJXelhwVUhhd050SXFOMkIzU085ekpVUG0tbktnZFo5YXNhUWc0RXp6RGhMU0hmTnhsWHdwQVpQSFdLd2R0QVBVUlZPRl0tLT48L2c+PC9zdmc+" vertex="1" parent="1">
            <mxGeometry width="2209" height="991" as="geometry" />
          </mxCell>
        </UserObject>
      </root>
    </mxGraphModel>
  </diagram>
</mxfile>
